<svg width="13" height="17" viewBox="0 0 13 17" fill="none" xmlns="http://www.w3.org/2000/svg">
<path d="M7.57632 11.1353C7.57632 11.6876 8.02402 12.1353 8.57632 12.1353C8.93372 12.1353 9.24732 11.9478 9.42412 11.6658L12.1117 8.97815C12.5022 8.58765 12.5022 7.95445 12.1117 7.56395C11.7212 7.17345 11.088 7.17345 10.6975 7.56395L9.57632 8.68515V1.13525C9.57632 0.582964 9.12852 0.135254 8.57632 0.135254C8.02402 0.135254 7.57632 0.582974 7.57632 1.13525V11.0859C7.57612 11.095 7.57612 11.1041 7.57632 11.1132V11.1353Z" fill="white"/>
<path d="M5.60768 5.13525C5.60768 4.58296 5.15988 4.13525 4.60768 4.13525C4.25024 4.13525 3.93664 4.32273 3.75981 4.60472L1.0722 7.29235C0.681665 7.68285 0.681666 8.31605 1.07219 8.70655C1.46272 9.09705 2.09588 9.09705 2.48641 8.70655L3.60764 7.58535V15.1353C3.60764 15.6876 4.05535 16.1353 4.60768 16.1353C5.15988 16.1353 5.60768 15.6876 5.60768 15.1353V5.1847C5.60778 5.17558 5.60778 5.16646 5.60768 5.15733V5.13525Z" fill="white"/>
</svg>
