<svg width="13" height="21" viewBox="0 0 13 21" fill="none" xmlns="http://www.w3.org/2000/svg">
<path fill-rule="evenodd" clip-rule="evenodd" d="M6.00039 0.438937C4.976 0.504674 3.96813 0.83676 3.1355 1.38291C2.7525 1.63415 2.50722 1.83557 2.15513 2.188C1.46589 2.87791 0.993312 3.63877 0.692897 4.54218C0.478318 5.18748 0.385756 5.75725 0.385756 6.4328C0.385756 7.0142 0.45545 7.51218 0.614915 8.07032C0.792541 8.69204 0.733471 8.57922 3.13046 12.8748C4.34992 15.0602 5.57089 17.2484 5.84373 17.7375C6.11657 18.2266 6.35419 18.6349 6.37178 18.6447C6.39311 18.6566 6.41249 18.6537 6.42996 18.6357C6.46078 18.6041 11.7516 9.12351 11.86 8.90559C12.1478 8.32735 12.3516 7.49816 12.3925 6.73942C12.5011 4.72257 11.5508 2.7494 9.89269 1.54863C9.08236 0.961805 8.09744 0.58133 7.10017 0.469857C6.76031 0.431855 6.30856 0.419155 6.00039 0.438937ZM6.00395 3.49383C4.34961 3.73292 3.25003 5.29066 3.58221 6.92459C3.75095 7.7545 4.34272 8.51794 5.12035 8.90892C5.3285 9.01356 5.69238 9.13238 5.92336 9.17107C6.1588 9.21054 6.60872 9.21157 6.84529 9.17319C8.45125 8.91271 9.51526 7.3855 9.20659 5.78393C8.99 4.66016 8.0862 3.75589 6.94733 3.52348C6.68725 3.47041 6.25918 3.45695 6.00395 3.49383ZM3.84767 17.3661C2.34405 17.4504 1.29268 17.6539 0.593471 17.996C0.329297 18.1252 0.167458 18.2535 0.0717902 18.4093C0.00391687 18.5199 0 18.5355 0 18.6961C0 18.903 0.0409495 18.9998 0.202255 19.174C1.18506 20.2355 5.7794 20.757 9.32739 20.2096C10.8753 19.9708 11.9971 19.5889 12.475 19.1381C13.0414 18.6038 12.6466 18.0293 11.5133 17.7385C11.2627 17.6741 10.6543 17.5622 10.6389 17.5775C10.6347 17.5818 10.7006 17.604 10.7854 17.6269C11.1697 17.7307 11.6695 17.9169 11.9387 18.0566C12.6588 18.4302 12.6621 18.7935 11.9485 19.1347C11.1495 19.5169 9.7282 19.7757 7.81403 19.8878C7.27795 19.9192 5.61702 19.9193 5.09396 19.888C3.36547 19.7846 2.16641 19.5976 1.26706 19.291C0.689771 19.0942 0.366468 18.8739 0.366073 18.677C0.365677 18.4781 0.864885 18.1806 1.60237 17.9402C2.13349 17.7671 2.78769 17.6208 3.78735 17.4517C4.34787 17.3569 4.35064 17.3562 4.1543 17.3581C4.04549 17.3591 3.90751 17.3627 3.84767 17.3661Z" fill="#FF9D00
"/>
</svg>
