<svg width="15" height="14" viewBox="0 0 15 14" fill="none" xmlns="http://www.w3.org/2000/svg">
<path d="M7.5 13.125C6.28859 13.125 5.10439 12.7658 4.09713 12.0928C3.08988 11.4197 2.30483 10.4631 1.84124 9.34394C1.37765 8.22474 1.25636 6.99321 1.49269 5.80507C1.72903 4.61694 2.31238 3.52557 3.16897 2.66897C4.02557 1.81238 5.11694 1.22903 6.30507 0.992693C7.49321 0.756358 8.72474 0.877654 9.84394 1.34124C10.9631 1.80483 11.9197 2.58988 12.5928 3.59713C13.2658 4.60439 13.625 5.78859 13.625 7C13.625 8.62445 12.9797 10.1824 11.831 11.331C10.6824 12.4797 9.12445 13.125 7.5 13.125ZM7.5 1.75C6.46165 1.75 5.44662 2.05791 4.58326 2.63479C3.7199 3.21166 3.047 4.0316 2.64964 4.99091C2.25228 5.95023 2.14831 7.00583 2.35088 8.02423C2.55345 9.04263 3.05347 9.97809 3.78769 10.7123C4.52192 11.4465 5.45738 11.9466 6.47578 12.1491C7.49418 12.3517 8.54978 12.2477 9.50909 11.8504C10.4684 11.453 11.2883 10.7801 11.8652 9.91675C12.4421 9.05339 12.75 8.03835 12.75 7C12.75 5.60762 12.1969 4.27226 11.2123 3.28769C10.2277 2.30313 8.89239 1.75 7.5 1.75Z" fill="#4E4E4E"/>
<path d="M9.6875 5.42937V7H10.5625V3.9375H7.5V4.8125H9.07063L5.3125 8.57063V7H4.4375V10.0625H7.5V9.1875H5.92937L9.6875 5.42937Z" fill="#4E4E4E"/>
</svg>
