<svg width="26" height="26" viewBox="0 0 26 26" fill="none" xmlns="http://www.w3.org/2000/svg">
<path fill-rule="evenodd" clip-rule="evenodd" d="M5.13607 2.24193C4.10056 2.24193 3.26112 3.08137 3.26112 4.11686V11.9883H3.5871C3.59956 11.9883 3.61198 11.9883 3.62432 11.9883C3.63043 11.9883 3.63652 11.9883 3.64259 11.9883H21.8174C21.8298 11.9883 21.8421 11.9883 21.8546 11.9883H24.1872C24.6622 11.9883 25.0472 12.3734 25.0472 12.8483C25.0472 13.3233 24.6622 13.7083 24.1872 13.7083H23.8801C23.8875 13.7598 23.8929 13.8121 23.8963 13.8647C23.9007 13.931 23.9006 14.0025 23.9006 14.0715V14.115C23.9006 14.5452 23.9006 14.7974 23.8827 15.0788C23.72 17.643 22.3343 20.011 20.3261 21.5593C20.3418 21.5841 20.3564 21.61 20.3699 21.6368L21.5165 23.9301C21.729 24.3549 21.5567 24.8715 21.1319 25.0838C20.7071 25.2963 20.1905 25.1241 19.9782 24.6993L18.8686 22.4801C17.9492 22.9455 16.9494 23.2517 15.9096 23.357C15.6292 23.3854 15.4581 23.3919 15.1666 23.4028L15.159 23.4031C14.3102 23.435 13.4794 23.4547 12.7209 23.4547C11.9624 23.4547 11.1315 23.435 10.2828 23.4031L10.2751 23.4028C9.9836 23.3919 9.81252 23.3854 9.53219 23.357C8.49233 23.2517 7.49253 22.9455 6.57319 22.4801L5.4636 24.6993C5.2512 25.1241 4.73463 25.2963 4.30982 25.0838C3.88502 24.8715 3.71283 24.3549 3.92523 23.9301L5.07187 21.6368C5.08529 21.61 5.09994 21.5841 5.11569 21.5593C3.10743 20.011 1.72176 17.643 1.55901 15.0788C1.54116 14.7974 1.54116 14.5451 1.54117 14.1149V14.0898C1.54117 14.0837 1.54117 14.0776 1.54116 14.0715C1.54116 14.0503 1.54114 14.0289 1.54126 14.0073C1.5412 14.0032 1.54117 13.9991 1.54117 13.9949V13.7083H1.25451C0.77956 13.7083 0.394531 13.3233 0.394531 12.8483C0.394531 12.3734 0.77956 11.9883 1.25451 11.9883H1.54117V4.11686C1.54117 2.13146 3.15066 0.521973 5.13607 0.521973C6.60603 0.521973 7.92791 1.41692 8.47383 2.78175L8.60012 3.09747C9.50974 2.86672 10.4967 2.92019 11.4271 3.31762C12.5913 3.81499 13.4384 4.75339 13.8722 5.85444C14.0425 6.28662 13.8388 6.77592 13.4122 6.9596L6.57737 9.90196C6.3636 9.99398 6.12167 9.99545 5.90681 9.906C5.69196 9.81656 5.52253 9.64387 5.43721 9.42734C5.00354 8.32673 4.97755 7.05224 5.45949 5.86546C5.80256 5.02063 6.35949 4.32799 7.04118 3.83125L6.8769 3.42053C6.59217 2.7087 5.90273 2.24193 5.13607 2.24193ZM3.64259 13.7083C3.59664 13.7083 3.5693 13.7083 3.54865 13.7085C3.53362 13.7087 3.52827 13.709 3.52807 13.709C3.52801 13.709 3.52731 13.709 3.52807 13.709C3.38467 13.7183 3.27149 13.8322 3.26178 13.9756C3.26172 13.9769 3.26152 13.9827 3.26137 13.9959C3.26113 14.0165 3.26112 14.0438 3.26112 14.0898C3.26112 14.5514 3.26148 14.7486 3.27551 14.9697C3.48813 18.3198 6.36578 21.3076 9.70549 21.6459C9.92904 21.6685 10.0528 21.6733 10.3473 21.6844C11.1821 21.7157 11.9904 21.7347 12.7209 21.7347C13.4514 21.7347 14.2597 21.7157 15.0944 21.6844C15.389 21.6733 15.5127 21.6685 15.7363 21.6459C19.076 21.3076 21.9536 18.3198 22.1663 14.9697C22.1803 14.7486 22.1806 14.5514 22.1806 14.0898C22.1806 14.0438 22.1806 14.0165 22.1804 13.9959C22.1803 13.9842 22.18 13.9783 22.18 13.9763C22.1799 13.9749 22.1799 13.9748 22.18 13.9763C22.1706 13.8326 22.0562 13.7183 21.9125 13.7089C21.9143 13.709 21.9139 13.709 21.9125 13.7089C21.9102 13.7089 21.9043 13.7086 21.893 13.7085C21.8724 13.7083 21.8451 13.7083 21.7991 13.7083H3.64259ZM10.7514 4.89929C9.99768 4.5773 9.18295 4.6221 8.48649 4.96114C7.86862 5.26194 7.3445 5.79489 7.05306 6.51259C6.86556 6.97428 6.79776 7.45518 6.83459 7.91867L11.8581 5.75604C11.5722 5.3876 11.1973 5.08983 10.7514 4.89929Z" fill="#4E4E4E"/>
</svg>
