<svg width="15" height="14" viewBox="0 0 15 14" fill="none" xmlns="http://www.w3.org/2000/svg">
<path fill-rule="evenodd" clip-rule="evenodd" d="M2.72976 0.976736C2.14171 0.976736 1.665 1.45344 1.665 2.04148V6.51158H1.85012C1.8572 6.51158 1.86425 6.51158 1.87126 6.51158C1.87473 6.51158 1.87819 6.51158 1.88163 6.51158H12.2028C12.2098 6.51158 12.2169 6.51158 12.224 6.51158H13.5486C13.8183 6.51158 14.037 6.73023 14.037 6.99994C14.037 7.26965 13.8183 7.48831 13.5486 7.48831H13.3742C13.3784 7.51755 13.3815 7.54724 13.3834 7.57713C13.3859 7.61477 13.3858 7.6554 13.3858 7.6946V7.71928C13.3858 7.96359 13.3858 8.10678 13.3757 8.26658C13.2833 9.72276 12.4964 11.0675 11.3559 11.9468C11.3648 11.9609 11.3732 11.9756 11.3808 11.9908L12.032 13.2931C12.1526 13.5344 12.0548 13.8277 11.8136 13.9483C11.5723 14.069 11.279 13.9712 11.1584 13.7299L10.5282 12.4697C10.0061 12.734 9.43839 12.9079 8.84786 12.9677C8.68865 12.9838 8.5915 12.9875 8.42597 12.9937L8.42161 12.9938C7.93962 13.012 7.46779 13.0232 7.03705 13.0232C6.60631 13.0232 6.13448 13.012 5.65248 12.9938L5.64813 12.9937C5.4826 12.9875 5.38544 12.9838 5.22625 12.9677C4.63573 12.9079 4.06796 12.734 3.54588 12.4697L2.91576 13.7299C2.79514 13.9712 2.50179 14.069 2.26055 13.9483C2.0193 13.8277 1.92152 13.5344 2.04214 13.2931L2.6933 11.9908C2.70092 11.9756 2.70924 11.9609 2.71819 11.9468C1.57772 11.0675 0.790824 9.72276 0.698399 8.26658C0.68826 8.10678 0.68826 7.96353 0.688267 7.71921V7.70495C0.688267 7.7015 0.688267 7.69805 0.68826 7.6946C0.68826 7.68255 0.688254 7.67038 0.688319 7.65813C0.688286 7.65579 0.688267 7.65345 0.688267 7.6511V7.48831H0.525477C0.255762 7.48831 0.0371094 7.26965 0.0371094 6.99994C0.0371094 6.73023 0.255762 6.51158 0.525477 6.51158H0.688267V2.04148C0.688267 0.914004 1.60227 0 2.72976 0C3.56453 0 4.3152 0.508228 4.62522 1.28329L4.69694 1.46258C5.2135 1.33155 5.774 1.36191 6.30235 1.58761C6.96347 1.87005 7.44455 2.40296 7.69088 3.02823C7.78758 3.27366 7.67193 3.55152 7.42964 3.65583L3.54825 5.32676C3.42685 5.37901 3.28947 5.37984 3.16745 5.32905C3.04544 5.27826 2.94922 5.18019 2.90077 5.05722C2.6545 4.4322 2.63973 3.70844 2.91342 3.03449C3.10825 2.55472 3.42452 2.16138 3.81164 1.87929L3.71835 1.64605C3.55665 1.24181 3.16513 0.976736 2.72976 0.976736ZM1.88163 7.48831C1.85554 7.48831 1.84001 7.48831 1.82829 7.48844C1.81975 7.48857 1.81671 7.4887 1.8166 7.4887C1.81617 7.4887 1.81657 7.4887 1.8166 7.4887C1.73517 7.49398 1.67089 7.5587 1.66537 7.6401C1.66534 7.64088 1.66523 7.64413 1.66515 7.65162C1.66501 7.66334 1.665 7.67884 1.665 7.70495C1.665 7.96711 1.66521 8.07911 1.67318 8.20465C1.79392 10.1071 3.42809 11.8039 5.32466 11.996C5.45161 12.0088 5.52188 12.0115 5.68915 12.0178C6.1632 12.0356 6.6222 12.0464 7.03705 12.0464C7.4519 12.0464 7.91091 12.0356 8.38495 12.0178C8.55223 12.0115 8.62249 12.0088 8.74947 11.996C10.646 11.8039 12.2802 10.1071 12.401 8.20465C12.4089 8.07911 12.4091 7.96711 12.4091 7.70495C12.4091 7.67884 12.4091 7.66334 12.409 7.65162C12.4089 7.64498 12.4088 7.64166 12.4088 7.64049C12.4087 7.63964 12.4087 7.63971 12.4088 7.64049C12.4034 7.5589 12.3385 7.49398 12.2569 7.48864C12.2576 7.4887 12.2578 7.4887 12.2569 7.48864C12.2556 7.48864 12.2522 7.48851 12.2458 7.48844C12.2341 7.48831 12.2186 7.48831 12.1925 7.48831H1.88163ZM5.91862 2.48581C5.49059 2.30296 5.02792 2.3284 4.63241 2.52094C4.28153 2.69176 3.98389 2.99441 3.81839 3.40198C3.71191 3.66417 3.67341 3.93726 3.69432 4.20047L6.54712 2.97235C6.38472 2.76312 6.17186 2.59402 5.91862 2.48581Z" fill="#4E4E4E"/>
</svg>
