<svg width="32" height="22" viewBox="0 0 32 22" fill="none" xmlns="http://www.w3.org/2000/svg">
<path d="M1.0789 21.1745H1.81572C2.46044 21.1745 2.88146 20.7666 2.88146 20.1219V18.2535C3.02621 18.293 3.44728 18.3193 3.74988 18.3193H28.0256C28.3282 18.3193 28.7362 18.293 28.8809 18.2535V20.1219C28.8809 20.7666 29.3018 21.1745 29.9466 21.1745H30.6965C31.3414 21.1745 31.7623 20.7666 31.7623 20.1219V11.5432C31.7623 9.29325 30.6176 8.03008 28.4993 7.87223V3.55653C28.4993 1.22768 27.2625 0.043457 24.9995 0.043457H6.76298C4.51302 0.043457 3.26306 1.22768 3.26306 3.55653V7.87223C1.14469 8.03008 0 9.29325 0 11.5432V20.1219C0 20.7666 0.42102 21.1745 1.0789 21.1745ZM6.5656 5.53016C6.5656 4.37231 7.21032 3.7276 8.39448 3.7276H12.8023C13.9733 3.7276 14.6312 4.37231 14.6312 5.53016V7.85907H6.5656V5.53016ZM17.1443 5.53016C17.1443 4.37231 17.789 3.7276 18.9732 3.7276H23.3678C24.5519 3.7276 25.2099 4.37231 25.2099 5.53016V7.85907H17.1443V5.53016ZM2.6315 16.3983C2.36833 16.3983 2.19733 16.2141 2.19733 15.9115V11.3458C2.19733 10.3853 2.82888 9.78007 3.80251 9.78007H27.973C28.9334 9.78007 29.5651 10.3853 29.5651 11.3458V15.9115C29.5651 16.2141 29.3939 16.3983 29.1439 16.3983H2.6315Z" fill="#4E4E4E"/>
</svg>
