<svg width="19" height="12" viewBox="0 0 19 12" fill="none" xmlns="http://www.w3.org/2000/svg">
<path d="M0.612689 12H1.03112C1.39725 12 1.63634 11.7684 1.63634 11.4023V10.3412C1.71854 10.3636 1.95766 10.3786 2.1295 10.3786H15.9153C16.0872 10.3786 16.3188 10.3636 16.401 10.3412V11.4023C16.401 11.7684 16.64 12 17.0062 12H17.4321C17.7983 12 18.0373 11.7684 18.0373 11.4023V6.53051C18.0373 5.25282 17.3873 4.53548 16.1843 4.44584V1.99502C16.1843 0.672502 15.4819 0 14.1968 0H3.8406C2.56288 0 1.85304 0.672502 1.85304 1.99502V4.44584C0.650052 4.53548 0 5.25282 0 6.53051V11.4023C0 11.7684 0.239091 12 0.612689 12ZM3.72851 3.11582C3.72851 2.45829 4.09463 2.09217 4.7671 2.09217H7.27023C7.93523 2.09217 8.30882 2.45829 8.30882 3.11582V4.43837H3.72851V3.11582ZM9.736 3.11582C9.736 2.45829 10.1021 2.09217 10.7746 2.09217H13.2702C13.9427 2.09217 14.3163 2.45829 14.3163 3.11582V4.43837H9.736V3.11582ZM1.49439 9.28767C1.34494 9.28767 1.24783 9.18306 1.24783 9.01122V6.41845C1.24783 5.87298 1.60648 5.52927 2.15939 5.52927H15.8855C16.4308 5.52927 16.7896 5.87298 16.7896 6.41845V9.01122C16.7896 9.18306 16.6924 9.28767 16.5504 9.28767H1.49439Z" fill="#4E4E4E"/>
</svg>
