<svg width="194" height="136" viewBox="0 0 194 136" fill="none" xmlns="http://www.w3.org/2000/svg">
<path d="M82.2118 103.791C81.249 104.204 80.4887 103.78 79.7284 103.008C76.7866 100.028 73.8676 97.021 70.7997 94.1746C68.7709 92.2949 66.7002 90.4381 64.7899 88.4552C62.7076 86.2927 60.5223 84.2487 58.4324 82.0977C58.3101 81.9754 58.1688 81.8685 57.951 81.6813C56.5985 83.0605 55.2613 84.4321 53.9126 85.7922C49.7978 89.9529 45.6754 94.1059 41.5644 98.2703C39.8719 99.9858 38.1832 101.705 36.525 103.459C36.0474 103.963 35.3865 103.997 34.9013 103.932C34.2594 103.848 33.6252 103.837 32.991 103.833C22.3964 103.822 11.8019 103.825 1.20733 103.825H0.202515V99.9247C0.504343 99.7336 0.80617 99.8139 1.09272 99.8139C11.4504 99.8139 21.8119 99.8062 32.1695 99.8253C32.8496 99.8253 33.3463 99.6419 33.7856 99.13C36.4639 96.0315 39.4669 93.2424 42.3094 90.2967C46.2485 86.2125 50.3633 82.2964 54.4284 78.3344C55.0435 77.7346 55.3033 77.1385 55.2957 76.2636C55.2536 69.7113 55.288 63.1589 55.2536 56.6104C55.2536 55.8731 55.5211 55.5063 56.1133 55.1318C58.0618 53.9093 60.0943 52.8242 62.0237 51.5596C62.9522 50.9521 63.0973 50.444 63.0935 49.5461C63.0744 45.3549 63.105 41.1637 63.0668 36.9725C63.0591 36.2619 63.2998 35.8454 63.8767 35.5016C67.8807 33.1099 71.8771 30.7067 75.8696 28.2959C77.4017 27.3713 78.0665 27.4515 79.7093 28.6321C81.8489 30.1718 84.1833 31.4021 86.4374 32.7622C87.3735 33.3276 88.256 33.9924 89.28 34.4203C89.5245 34.0765 89.4175 33.7441 89.4175 33.4384C89.4251 25.7934 89.4328 18.1522 89.406 10.5072C89.406 9.74685 89.6047 9.28456 90.2924 8.91014C92.1722 7.89003 94.0137 6.80498 95.8629 5.72757C98.9843 3.90896 102.102 2.08653 105.208 0.244998C105.751 -0.0759326 106.144 -0.0950356 106.732 0.267922C108.425 1.29949 110.198 2.20497 111.909 3.20215C113.869 4.34451 115.822 5.5098 117.77 6.67508C119.799 7.88621 121.87 9.02858 123.948 10.1557C124.361 10.3773 124.261 10.6791 124.265 10.9656C124.281 12.5283 124.273 14.0947 124.273 15.6573C124.273 22.0912 124.284 28.5251 124.261 34.959C124.261 35.8378 124.628 36.3115 125.373 36.728C126.97 37.6182 128.51 38.6115 130.076 39.5552C131.777 40.5792 133.484 41.5916 135.188 42.6155C136.247 43.2498 137.301 43.8993 138.359 44.5335C138.577 44.6634 138.707 44.8124 138.707 45.0875C138.703 49.2443 138.703 53.4011 138.703 57.7222C132.716 56.1061 126.707 55.8387 120.678 56.301C120.418 55.9227 120.513 55.5598 120.513 55.2159C120.51 41.5802 120.494 27.9482 120.536 14.3125C120.536 13.1587 120.242 12.5703 119.18 12.0125C116.261 10.4766 113.453 8.73821 110.587 7.10299C109.139 6.27774 107.676 5.47923 106.282 4.52408C106.041 4.86029 106.152 5.19269 106.152 5.49833C106.144 12.8186 106.152 20.1351 106.144 27.4554C106.136 38.963 106.079 50.4745 106.167 61.9822C106.178 63.4073 105.56 63.9727 104.532 64.4503C102.22 65.5239 100.146 66.9337 98.1858 68.5651C95.3585 70.9148 92.963 73.5968 91.2017 76.8291C90.6325 77.8721 90.1358 78.9572 89.5703 80.0919C89.2991 79.7633 89.4213 79.408 89.4213 79.0985C89.4137 65.906 89.3869 52.7134 89.4557 39.5247C89.4633 38.1531 89.0202 37.4615 87.8931 36.8311C84.9245 35.1692 82.017 33.4002 79.0866 31.6695C78.5937 31.3791 78.2422 30.871 77.6004 30.7067C77.4437 31.5778 77.5736 32.426 77.5774 33.2703C77.5851 37.282 77.5965 41.2974 77.6042 45.3091C77.6195 52.7745 77.6195 60.24 77.6424 67.7093C77.6691 75.7631 77.7608 83.817 77.6959 91.8708C77.6844 93.3188 78.6281 93.9034 79.3387 94.7554C79.8889 95.4163 80.462 96.0773 81.1153 96.6351C81.9215 97.3228 82.2539 98.1137 82.208 99.172C82.1431 100.67 82.1927 102.175 82.1927 103.783L82.2118 103.791ZM93.2152 44.2164C94.3384 43.5439 95.2859 42.9632 96.2526 42.413C96.6041 42.2144 96.6155 41.924 96.6155 41.5916C96.6155 39.0929 96.6193 36.5904 96.6193 34.0918C96.6193 33.9542 96.6499 33.7938 96.413 33.6982C95.4923 34.2484 94.5371 34.8215 93.5743 35.3831C93.3145 35.5321 93.2114 35.727 93.2114 36.025C93.219 38.6956 93.2152 41.3662 93.2152 44.2164ZM96.6193 45.3587C95.8934 45.7866 95.3738 46.1954 94.7854 46.4247C93.4712 46.9405 93.0967 47.8268 93.1808 49.2175C93.3145 51.4029 93.2152 53.6036 93.2152 55.9877C94.369 55.3 95.3662 54.7039 96.3672 54.1117C96.5735 53.9895 96.6193 53.7985 96.6193 53.5845C96.6193 50.9101 96.6193 48.2395 96.6193 45.3626V45.3587ZM93.2152 32.3381C94.2506 31.7192 95.1217 31.1766 96.0157 30.68C96.4512 30.4393 96.6346 30.1489 96.6232 29.6331C96.5888 28.101 96.6117 26.569 96.6117 25.0369C96.6117 23.9901 96.6117 22.9394 96.6117 21.6901C95.4502 22.3892 94.4531 22.9891 93.4521 23.5889C93.2037 23.7379 93.2114 23.971 93.2152 24.2078C93.2152 26.8594 93.2152 29.507 93.2152 32.3381ZM96.6155 9.82326C95.5572 10.4613 94.7205 11 93.8494 11.4738C93.3756 11.7336 93.1923 12.043 93.2037 12.5894C93.2381 14.3278 93.2152 16.0661 93.2152 17.8045C93.2152 18.6412 93.2152 19.4818 93.2152 20.4637C93.8647 20.0816 94.3346 19.711 94.8695 19.5047C96.3557 18.9354 96.7569 17.9038 96.6499 16.3603C96.5047 14.259 96.6155 12.1386 96.6155 9.81944V9.82326ZM71.5294 54.6772C72.5686 54.0583 73.4321 53.5081 74.3299 53.0229C74.8151 52.7631 74.945 52.4269 74.9374 51.8958C74.9068 49.718 74.9259 47.5441 74.9259 45.3664C74.9259 44.9729 74.9259 44.5793 74.9259 44.0368C73.7874 44.7169 72.8131 45.3052 71.8312 45.8822C71.5982 46.0197 71.5294 46.2107 71.5294 46.4667C71.5294 49.1411 71.5294 51.8156 71.5294 54.6734V54.6772ZM102.423 6.34651C101.399 6.95781 100.535 7.50797 99.6414 7.99701C99.1715 8.25299 98.9881 8.56246 98.9958 9.10881C99.0301 11.1146 99.011 13.1204 99.011 15.1224C99.011 15.6955 99.011 16.2648 99.011 17.0022C100.153 16.3145 101.128 15.7146 102.113 15.1415C102.396 14.9773 102.43 14.7557 102.427 14.4768C102.423 11.8253 102.427 9.16994 102.427 6.33887L102.423 6.34651ZM99.011 28.8728C100.066 28.2386 100.956 27.677 101.873 27.1688C102.285 26.9396 102.45 26.676 102.438 26.1946C102.404 24.8994 102.427 23.6004 102.427 22.3052V18.2133C101.284 18.901 100.283 19.5047 99.2785 20.0969C99.034 20.2421 99.011 20.456 99.011 20.7005C99.011 23.352 99.011 26.0035 99.011 28.8728ZM71.5294 42.7913C72.6871 42.1036 73.6881 41.5076 74.6891 40.9192C75.0176 40.7243 74.9183 40.4072 74.9183 40.1283C74.9259 38.5657 74.9183 37.0069 74.9183 35.4443C74.9183 34.4012 74.9183 33.362 74.9183 32.17C73.86 32.8004 72.9698 33.362 72.049 33.8663C71.6211 34.0994 71.5065 34.3974 71.5141 34.8597C71.5409 36.3306 71.5218 37.8054 71.5218 39.2763C71.5218 40.3843 71.5218 41.4923 71.5218 42.7913H71.5294ZM69.1186 47.525C68.4003 47.9491 67.8578 48.3656 67.2465 48.6101C65.9628 49.122 65.6304 50.0046 65.703 51.3418C65.8252 53.5578 65.7374 55.7852 65.7374 58.1539C66.8377 57.493 67.8082 56.897 68.79 56.3239C69.0613 56.1672 69.1224 55.9571 69.1224 55.6706C69.1148 53.0229 69.1186 50.3752 69.1186 47.525ZM69.1186 35.6429C68.0871 36.2619 67.2007 36.8235 66.2799 37.3316C65.8635 37.5647 65.7221 37.836 65.7259 38.3135C65.7488 40.7625 65.7336 43.2116 65.7412 45.6606C65.7412 45.8172 65.6571 46.0197 65.9361 46.1458C66.3601 45.8974 66.788 45.5689 67.2694 45.374C68.7633 44.7704 69.3096 43.777 69.1645 42.115C68.9811 40.0175 69.1186 37.8933 69.1186 35.6391V35.6429ZM65.7374 69.9176C66.8606 69.2452 67.8616 68.6453 68.8626 68.0531C69.0307 67.9538 69.1186 67.8277 69.1186 67.6291C69.1186 64.905 69.1186 62.1771 69.1186 59.2887C67.9877 59.9687 66.9867 60.5724 65.9857 61.1646C65.7794 61.2868 65.7336 61.4664 65.7374 61.6842C65.7374 64.3815 65.7374 67.0751 65.7374 69.9176ZM102.423 30.103C102.045 30.3208 101.812 30.5042 101.548 30.5959C99.4122 31.3486 98.6939 32.8004 98.9614 35.0469C99.1791 36.8655 99.0034 38.73 99.0034 40.7396C99.565 40.4034 99.9624 40.0825 100.413 39.9182C102.136 39.284 102.622 38.0996 102.461 36.3077C102.278 34.3019 102.419 32.2693 102.419 30.103H102.423Z" fill="white"/>
<path d="M139.827 63.2928C135.024 70.9264 133.607 79.3661 133.947 88.2108C134.745 85.1581 135.502 82.0978 136.518 79.1063C137.832 75.236 139.357 71.4613 141.576 67.9998C141.989 67.3579 142.333 67.2242 143.066 67.5604C147.368 69.5357 151.132 72.1986 154.1 75.9199C155.652 77.8684 156.786 80.0385 157.707 82.35C158.773 85.0244 159.239 87.7867 159.258 90.6407C159.258 91.1298 159.461 91.3743 159.854 91.6073C161.367 92.5014 162.857 93.4336 164.363 94.3352C164.68 94.5263 164.821 94.7517 164.802 95.1223C164.672 97.9801 164.554 100.834 164.435 103.65C164.095 103.929 163.759 103.818 163.446 103.818C138.306 103.826 113.163 103.818 88.023 103.845C87.1557 103.845 86.9609 103.581 86.9456 102.756C86.8997 100.399 86.7736 98.0412 86.6246 95.6839C86.575 94.9198 86.8195 94.5072 87.4614 94.0449C88.7604 93.105 90.1969 92.4288 91.5685 91.6264C92.0193 91.3628 92.2256 91.0801 92.2065 90.5185C92.1378 88.2185 92.4587 85.9146 93.1502 83.7598C93.9411 81.3108 95.0835 78.9573 96.6423 76.8521C98.2202 74.7202 100.035 72.8481 102.148 71.2206C104.134 69.6885 106.331 68.5729 108.555 67.4764C109.159 67.1784 109.457 67.3579 109.774 67.847C110.683 69.2453 111.501 70.6857 112.204 72.2025C114.534 77.2266 116.139 82.4875 117.342 87.8784C117.365 87.9854 117.419 88.0809 117.537 88.165C117.873 79.3508 116.318 70.9837 111.688 63.3348C116.101 59.9574 134.26 59.7549 139.827 63.2813V63.2928Z" fill="#FF9D00"/>
<path d="M16.8565 123.498C18.3504 124.453 19.2062 125.672 19.5309 127.276C20.2072 130.608 18.7363 133.244 15.5957 134.406C14.1783 134.929 12.6921 135.055 11.202 135.067C7.60301 135.101 4.00018 135.078 0.401164 135.074C0.286546 135.074 0.171927 135.048 0 135.028V113.152C0.0611297 113.11 0.087874 113.075 0.110798 113.075C4.14918 113.06 8.19138 112.892 12.2259 113.175C13.9987 113.301 15.5843 113.942 16.9902 115.043C18.3657 116.116 19.0457 118.875 18.4153 120.976C18.1364 121.901 17.7314 122.757 16.8565 123.49V123.498ZM5.49021 130.39C7.84371 130.295 10.1131 130.566 12.3635 130.226C13.5288 130.05 14.1477 129.347 14.1783 128.384C14.2088 127.383 13.5937 126.627 12.3826 126.432C10.1055 126.069 7.81314 126.329 5.49021 126.26V130.39ZM5.50167 121.622C6.96497 121.622 8.31746 121.637 9.66996 121.614C10.4035 121.603 11.1409 121.576 11.8477 121.328C12.6462 121.045 13.1544 120.537 13.1314 119.639C13.1085 118.749 12.6042 118.195 11.7789 118.004C9.69288 117.522 7.58773 117.862 5.50167 117.767V121.618V121.622Z" fill="white"/>
<path d="M92.6306 135.082V113.17C92.6918 113.125 92.7376 113.06 92.7835 113.06C96.2946 113.06 99.8096 112.979 103.313 113.109C106.335 113.22 109.105 114.248 111.283 116.407C112.842 117.954 113.697 119.929 114.072 122.122C114.473 124.457 114.141 126.726 113.273 128.839C112.54 130.619 111.199 132.086 109.556 133.171C107.466 134.551 105.101 135.036 102.641 135.07C99.3358 135.112 96.031 135.082 92.6268 135.082H92.6306ZM98.0941 130.176C100.02 130.122 101.85 130.31 103.668 130.027C106.736 129.549 108.662 127.314 108.735 124.162C108.803 121.11 107.019 118.821 104.028 118.191C102.079 117.778 100.108 118.042 98.0979 117.973V130.176H98.0941Z" fill="white"/>
<path d="M168.859 135.082C166.842 135.082 164.936 135.089 163.025 135.074C162.773 135.074 162.567 134.96 162.395 134.696C161.249 132.98 159.946 131.368 158.918 129.569C158.781 129.328 158.639 129.164 158.311 129.168C157.103 129.19 155.896 129.175 154.608 129.175V135.013H149.134V113.178C149.183 113.14 149.225 113.071 149.271 113.071C152.985 113.09 156.71 112.789 160.408 113.236C163.457 113.602 165.971 114.97 167.194 117.985C168.573 121.381 167.698 125.53 164.37 127.628C163.923 127.911 164.114 128.216 164.359 128.552C165.822 130.585 167.27 132.629 168.718 134.669C168.764 134.734 168.775 134.822 168.867 135.078L168.859 135.082ZM154.628 117.973V124.35C155.816 124.35 156.958 124.369 158.097 124.342C158.654 124.327 159.216 124.269 159.762 124.159C161.524 123.792 162.418 122.554 162.25 120.762C162.108 119.234 161.134 118.294 159.354 118.069C157.806 117.87 156.248 118.004 154.628 117.977V117.973Z" fill="white"/>
<path d="M139.597 113.102V117.889H128.621V121.5H138.325V126.321H128.617V130.188H139.96V134.941C139.353 135.12 124.147 135.162 123.119 134.967V113.098H139.597V113.102Z" fill="white"/>
<path d="M26.985 113.083H32.3338C32.5134 113.423 32.4331 113.752 32.4331 114.069C32.4408 117.962 32.4446 121.855 32.4331 125.752C32.4331 126.379 32.5287 126.986 32.693 127.571C33.3042 129.726 34.8287 130.325 36.7581 130.383C38.5156 130.436 40.273 129.195 40.6666 127.349C40.9034 126.245 40.9913 125.168 40.9989 124.071C41.0219 120.766 41.0066 117.461 41.0066 114.16C41.0066 113.839 41.0066 113.519 41.0066 113.121H46.3325C46.451 113.205 46.4548 113.354 46.4548 113.499C46.4433 117.687 46.4662 121.878 46.4051 126.065C46.3707 128.48 45.6945 130.757 44.0784 132.58C42.8519 133.963 41.2091 134.818 39.3637 135.162C37.7973 135.453 36.1812 135.51 34.6224 135.319C31.627 134.952 29.0175 133.233 27.7071 130.192C27.1416 128.877 26.962 127.494 26.9582 126.085C26.9468 121.924 26.9582 117.767 26.9582 113.606C26.9582 113.461 26.9773 113.32 26.9964 113.087L26.985 113.083Z" fill="white"/>
<path d="M193.384 115.138C192.845 116.441 192.291 117.664 191.84 118.921C191.603 119.586 191.367 119.639 190.778 119.299C189.04 118.29 187.195 117.607 185.143 117.637C184.287 117.649 183.481 117.851 182.74 118.287C181.773 118.856 181.758 120.075 182.759 120.575C184.325 121.362 186.06 121.649 187.733 122.107C189.288 122.531 190.797 123.036 192.096 124.063C194.702 126.123 194.469 130.574 192.391 132.74C191.191 133.989 189.762 134.677 188.066 135.025C184.455 135.758 181.005 135.464 177.716 133.756C175.737 132.729 175.683 132.553 176.596 130.547C176.929 129.817 177.219 129.068 177.574 128.35C177.769 127.957 177.975 127.754 178.499 128.167C180.829 130.008 183.473 130.879 186.469 130.417C187.687 130.23 188.574 129.607 188.581 128.881C188.593 127.689 187.531 127.597 186.759 127.326C184.677 126.596 182.461 126.279 180.424 125.416C178.942 124.789 176.569 122.933 176.581 120.77C176.588 119.162 176.497 117.515 177.41 116.178C178.22 114.989 179.351 114.053 180.833 113.564C183.943 112.533 187.015 112.544 190.129 113.465C191.305 113.813 192.371 114.344 193.384 115.142V115.138Z" fill="white"/>
<path d="M74.1274 130.157H84.6531V135.009H68.6677V113.094H74.1274V130.157Z" fill="white"/>
<path d="M54.7607 113.083H60.1593V135.013H54.7607V113.083Z" fill="white"/>
<path d="M53.1981 99.6802H57.3817V103.78C56.0941 103.94 54.7722 103.68 53.3662 103.952C53.0568 102.595 53.3357 101.178 53.1981 99.6802Z" fill="white"/>
<path d="M62.7 103.784H58.6539V99.688H62.7V103.784Z" fill="white"/>
<path d="M57.4008 94.1133V98.144H53.2745V94.1133H57.4008Z" fill="white"/>
<path d="M62.6846 98.1596H58.6462V94.106H62.6846V98.1596Z" fill="white"/>
</svg>
