<svg width="45" height="40" viewBox="0 0 45 40" fill="none" xmlns="http://www.w3.org/2000/svg">
<path fill-rule="evenodd" clip-rule="evenodd" d="M9.02254 1.24457V2.05957H6.76956H4.51646L4.48479 19.4301L4.45299 36.8006L2.22643 36.8348L0 36.869L0.0355544 38.1493L0.0712349 39.4297H22.1678H44.2644L44.3 38.1493L44.3356 36.869L42.1092 36.8348L39.8826 36.8006L39.8507 23.8745L39.8189 10.9483H37.6911H35.5635V10.1971V9.44596H31.0544H26.5453L26.5787 12.6697L26.6122 15.8934L27.9611 15.929L29.3101 15.9645L29.2756 17.932L29.2412 19.8996L27.8903 19.9351L26.5392 19.9708L26.5757 20.9367L26.6122 21.9027L27.958 21.9382L29.3038 21.9738V23.9058V25.8377L27.958 25.8733L26.6122 25.9088V26.9104V27.9119L27.958 27.9475L29.3038 27.983V29.915V31.847L27.958 31.8826L26.6122 31.9181L26.5782 34.3907L26.5443 36.8632H26.1714H25.7984V19.4614V2.05957H23.5509H21.3033L21.2662 1.27712L21.2289 0.494662L15.1257 0.462113L9.02254 0.429688V1.24457ZM7.45211 7.72506C7.41794 7.81395 7.40529 9.15301 7.42382 10.7008L7.45762 13.5147H10.3997H13.3417V10.5727V7.63066L10.428 7.59711C8.13842 7.5707 7.50081 7.59811 7.45211 7.72506ZM16.9097 10.5727V13.582L19.8204 13.5483L22.7312 13.5147V10.5727V7.63066L19.8204 7.59711L16.9097 7.56344V10.5727ZM31.6825 17.9622V19.9686L33.6543 19.934L35.6261 19.8996L35.6605 17.9278L35.695 15.956H33.6887H31.6825V17.9622ZM7.48704 16.5318C7.44573 16.573 7.40642 17.8969 7.39966 19.4738L7.38726 22.3408H10.3958H13.4043V19.3988V16.4568H10.4832C8.87644 16.4568 7.52823 16.4904 7.48704 16.5318ZM16.9097 19.3988V22.3408H19.8517H22.7938V19.3988V16.4568H19.8517H16.9097V19.3988ZM31.6825 23.9058V25.8462H33.6856H35.6886V23.9058V21.9653H33.6856H31.6825V23.9058ZM7.42407 28.2562L7.45762 31.167L10.431 31.2005L13.4043 31.2341V28.2898V25.3455H10.3974H7.39039L7.42407 28.2562ZM16.9097 28.2875V31.2295H19.8517H22.7938V28.2875V25.3455H19.8517H16.9097V28.2875ZM33.5291 27.9466L31.6825 27.9812V29.9184V31.8555H33.6856H35.6886V29.9284C35.6886 28.4941 35.6486 27.9899 35.5322 27.9566C35.4461 27.9321 34.5448 27.9276 33.5291 27.9466Z" fill="#FF9D00"/>
</svg>
