<svg width="13" height="13" viewBox="0 0 13 13" fill="none" xmlns="http://www.w3.org/2000/svg">
<path d="M8.62135 6.45146L12.5003 2.56848C12.7521 2.28224 12.8855 1.91084 12.8734 1.52977C12.8612 1.14871 12.7044 0.78657 12.4348 0.51698C12.1652 0.24739 11.8031 0.0905701 11.422 0.0784001C11.0409 0.0662401 10.6695 0.19963 10.3833 0.45148L6.50035 4.33048L2.61033 0.43948C2.47099 0.30015 2.30558 0.18962 2.12354 0.11422C1.94149 0.0388101 1.74637 0 1.54933 0C1.35228 0 1.15716 0.0388101 0.975118 0.11422C0.793068 0.18962 0.627657 0.30015 0.488327 0.43948C0.348987 0.57881 0.238467 0.74422 0.163057 0.92627C0.0876573 1.10832 0.0488476 1.30343 0.0488476 1.50048C0.0488476 1.69753 0.0876573 1.89264 0.163057 2.07469C0.238467 2.25674 0.348987 2.42215 0.488327 2.56148L4.37933 6.45146L0.500328 10.3335C0.348198 10.4695 0.225417 10.6351 0.139487 10.8202C0.0535572 11.0053 0.0062974 11.2059 0.000587398 11.4099C-0.0051226 11.6138 0.0308474 11.8168 0.106287 12.0064C0.181727 12.196 0.295057 12.3682 0.439347 12.5125C0.583627 12.6568 0.755827 12.7701 0.945417 12.8456C1.13501 12.921 1.338 12.957 1.54197 12.9513C1.74594 12.9455 1.9466 12.8983 2.13167 12.8124C2.31674 12.7264 2.48234 12.6036 2.61833 12.4515L6.50035 8.57246L10.3783 12.4515C10.6597 12.7329 11.0413 12.891 11.4393 12.891C11.8372 12.891 12.2189 12.7329 12.5003 12.4515C12.7817 12.1701 12.9398 11.7885 12.9398 11.3905C12.9398 10.9926 12.7817 10.6109 12.5003 10.3295L8.62135 6.45146Z" fill="black"/>
</svg>
