<svg width="25" height="25" viewBox="0 0 25 25" fill="none" xmlns="http://www.w3.org/2000/svg">
<path d="M12.5386 23.1557C10.4054 23.1557 8.32008 22.5232 6.54639 21.338C4.7727 20.1529 3.39028 18.4684 2.57394 16.4976C1.7576 14.5268 1.54401 12.3581 1.96018 10.2659C2.37634 8.17373 3.40358 6.25191 4.91197 4.74352C6.42037 3.23512 8.34219 2.20789 10.4344 1.79172C12.5266 1.37555 14.6952 1.58915 16.6661 2.40549C18.6369 3.22182 20.3214 4.60425 21.5065 6.37793C22.6916 8.15162 23.3242 10.2369 23.3242 12.3701C23.3242 15.2306 22.1879 17.974 20.1652 19.9967C18.1425 22.0194 15.3991 23.1557 12.5386 23.1557ZM12.5386 3.12528C10.7101 3.12528 8.92272 3.66748 7.40242 4.68332C5.88211 5.69915 4.69718 7.143 3.99746 8.83227C3.29774 10.5215 3.11466 12.3804 3.47138 14.1737C3.82809 15.967 4.70857 17.6143 6.00149 18.9072C7.2944 20.2001 8.94167 21.0806 10.735 21.4373C12.5283 21.794 14.3871 21.6109 16.0764 20.9112C17.7657 20.2115 19.2095 19.0266 20.2254 17.5063C21.2412 15.986 21.7834 14.1986 21.7834 12.3701C21.7834 9.91823 20.8094 7.56677 19.0757 5.83303C17.3419 4.09929 14.9905 3.12528 12.5386 3.12528Z" fill="#4E4E4E"/>
<path d="M16.3894 9.60412V12.3699H17.9302V6.97705H12.5373V8.51786H15.3031L8.68534 15.1356V12.3699H7.14453V17.7627H12.5373V16.2219H9.7716L16.3894 9.60412Z" fill="#4E4E4E"/>
</svg>
