<svg width="29" height="21" viewBox="0 0 29 21" fill="none" xmlns="http://www.w3.org/2000/svg">
<path fill-rule="evenodd" clip-rule="evenodd" d="M0.803179 0.469814C0.499498 0.565574 0.256365 0.767394 0.10946 1.04577L0.0135563 1.22749L0.00422435 10.3687C-0.00507167 19.4974 -0.00496384 19.5102 0.0682557 19.7059C0.166061 19.9674 0.382131 20.2053 0.633985 20.329L0.839071 20.4297H14.2088H27.5786L27.7837 20.329C28.0355 20.2053 28.2516 19.9674 28.3493 19.7061C28.4225 19.5106 28.4226 19.4949 28.4134 10.3689L28.4041 1.22749L28.3082 1.04577C28.1936 0.828554 27.972 0.61977 27.7445 0.514571L27.5786 0.43787L14.2627 0.431194C3.63143 0.425882 0.917818 0.433671 0.803179 0.469814ZM4.33724 2.85247C4.44514 2.94575 5.42229 3.79574 6.50871 4.74132C7.59516 5.68689 8.72741 6.67212 9.02481 6.93072C9.32221 7.18933 9.98287 7.76432 10.4929 8.20848C11.003 8.65264 11.5602 9.13718 11.7313 9.28524C11.9023 9.43329 12.5318 9.98093 13.1304 10.5022C14.0619 11.3135 14.2277 11.4442 14.282 11.4103C14.3169 11.3885 16.0954 9.8402 18.2342 7.96962C20.3731 6.09904 22.5672 4.18169 23.11 3.70885C23.6529 3.23601 24.1371 2.81133 24.186 2.76514L24.2749 2.68112L14.208 2.68198L4.14113 2.68288L4.33724 2.85247ZM2.2568 10.4341V16.8366L2.37345 16.7288C2.43759 16.6694 2.67584 16.4596 2.90286 16.2625C3.6161 15.6433 4.9847 14.4536 5.43324 14.063C5.67013 13.8567 5.96846 13.5977 6.09617 13.4875C6.22391 13.3773 6.40157 13.2216 6.49098 13.1415C6.58042 13.0613 7.15426 12.5613 7.76622 12.0304C9.39496 10.6173 9.57876 10.4554 9.57876 10.4339C9.57876 10.4231 9.30017 10.1716 8.95963 9.87498C8.61908 9.57829 7.84041 8.9003 7.22917 8.36823C6.61793 7.83621 5.73768 7.06952 5.27306 6.66448C4.80843 6.25944 4.12139 5.66234 3.74632 5.33762C3.09807 4.77642 2.5719 4.316 2.35551 4.12067L2.2568 4.03159V10.4341ZM24.7072 5.31386C23.9373 5.98949 22.3141 7.41074 21.1001 8.47214C19.886 9.53357 18.8927 10.4164 18.8927 10.4341C18.8927 10.4517 19.5065 11.0026 20.2566 11.6582C21.0068 12.3139 22.6333 13.7361 23.8712 14.8185C25.109 15.901 26.1306 16.7867 26.1413 16.7867C26.1521 16.7867 26.1608 13.9279 26.1608 10.4338C26.1608 6.9397 26.1487 4.08191 26.1339 4.08316C26.1191 4.08438 25.4771 4.63823 24.7072 5.31386ZM10.5455 12.6147C9.86457 13.2064 9.17221 13.809 6.74208 15.9252C6.41338 16.2115 5.69931 16.8333 5.15526 17.3071L4.16608 18.1685L9.18747 18.1776C11.9492 18.1826 16.4708 18.1826 19.2355 18.1776L24.2622 18.1685L23.4977 17.5002C23.0772 17.1326 21.4748 15.7323 19.9369 14.3884L17.1406 11.945L17.058 12.0099C17.0126 12.0457 16.8738 12.1642 16.7497 12.2735C15.3997 13.4605 14.8472 13.9271 14.7113 13.9947C14.4856 14.107 14.0127 14.1098 13.7748 14.0002C13.6255 13.9315 12.9886 13.3979 11.7792 12.3283C11.5384 12.1154 11.3365 11.9415 11.3305 11.9417C11.3245 11.9419 10.9712 12.2448 10.5455 12.6147Z" fill="#FF9D00"/>
</svg>
