<svg width="35" height="34" viewBox="0 0 35 34" fill="none" xmlns="http://www.w3.org/2000/svg">
<path fill-rule="evenodd" clip-rule="evenodd" d="M16.657 0.0080329C13.8593 0.0972601 11.1313 0.867164 8.73536 2.24371C7.90371 2.72151 7.23633 3.17671 6.50427 3.76543C4.95497 5.0114 3.5819 6.57712 2.58205 8.23794C2.36506 8.59837 2.22633 8.8462 1.98331 9.30753C1.79672 9.6617 1.50571 10.3049 1.30655 10.8033C0.191767 13.5928 -0.154997 16.7151 0.312898 19.7497C0.775345 22.749 2.03355 25.5621 3.97322 27.9334C4.88345 29.0462 5.97306 30.0784 7.12262 30.9168C9.11391 32.3691 11.3651 33.3703 13.7324 33.8562C14.0737 33.9263 14.4796 34 14.5239 34C14.5381 34 14.5429 32.4831 14.5429 28.0253V22.0507H12.3703H10.1977V19.5773V17.1039L12.3661 17.0997L14.5345 17.0955L14.5445 14.856C14.5545 12.5943 14.5558 12.546 14.6197 12.0734C14.8997 10.0053 15.868 8.43949 17.4174 7.54914C17.7725 7.34508 18.0953 7.2 18.4954 7.06467C19.5973 6.69186 20.7167 6.60289 22.5481 6.74252C22.9424 6.77257 23.1688 6.79302 23.3921 6.81874C23.7101 6.85539 24.5125 6.95804 24.6288 6.97698C24.6839 6.98595 24.7535 6.9973 24.7834 7.00219L24.8377 7.0111V9.11609V11.2211L23.7305 11.2213C22.2459 11.2217 22.0051 11.2401 21.5367 11.3894C20.6759 11.6636 20.1373 12.2824 19.9518 13.2099C19.8924 13.5069 19.8892 13.6285 19.8942 15.3741L19.8992 17.0955L22.27 17.0997L24.6407 17.1039L24.6318 17.1415C24.6269 17.1621 24.6066 17.2881 24.5867 17.4214C24.5669 17.5546 24.5208 17.8555 24.4843 18.0899C24.4478 18.3242 24.3962 18.6627 24.3697 18.8419C24.3431 19.0212 24.2946 19.3408 24.2619 19.5522C24.2292 19.7636 24.1689 20.1547 24.1279 20.4212C24.0869 20.6878 24.0223 21.1052 23.9843 21.3488C23.9464 21.5923 23.9066 21.848 23.896 21.917L23.8766 22.0423L21.8837 22.0466L19.8908 22.0508V28.0254C19.8908 32.8571 19.8949 34 19.9122 34C19.9535 34 20.421 33.9146 20.7432 33.8482C21.4749 33.6974 22.2051 33.4878 23.1414 33.1599C23.437 33.0563 24.0143 32.8146 24.4858 32.5969C25.7071 32.033 27.0529 31.1764 28.1392 30.2717C30.1743 28.5765 31.7851 26.452 32.8496 24.0588C33.5307 22.5276 33.9585 20.9976 34.1868 19.2764C34.2549 18.763 34.3134 17.9977 34.3135 17.6177C34.3136 17.498 34.3201 17.4214 34.3303 17.4214C34.341 17.4214 34.3462 17.299 34.3446 17.0829C34.3433 16.8878 34.3372 16.7728 34.3303 16.8114C34.3225 16.8548 34.3175 16.7958 34.316 16.6433C34.3119 16.2371 34.2578 15.5003 34.1953 14.9981C33.899 12.6178 33.109 10.3245 31.8881 8.30004C30.3132 5.68839 28.0742 3.53898 25.4143 2.08506C23.9029 1.25892 22.2508 0.658728 20.5928 0.333455C20.0476 0.226497 20.0716 0.230691 19.6903 0.17529C18.7439 0.0377474 17.6377 -0.0232526 16.657 0.0080329ZM0.110495 17.1038C0.110495 17.2923 0.112935 17.3694 0.11591 17.2751C0.118884 17.1809 0.118884 17.0268 0.11591 16.9325C0.112935 16.8383 0.110495 16.9154 0.110495 17.1038Z" fill="white"/>
</svg>
