<svg width="182" height="128" viewBox="0 0 182 128" fill="none" xmlns="http://www.w3.org/2000/svg">
<path d="M77.0945 97.7603C76.1917 98.1472 75.4787 97.7495 74.7657 97.0258C72.007 94.2312 69.2697 91.4116 66.3927 88.7424C64.4903 86.9797 62.5484 85.2384 60.757 83.379C58.8044 81.3511 56.755 79.4343 54.7952 77.4172C54.6806 77.3026 54.548 77.2022 54.3438 77.0267C53.0755 78.3201 51.8215 79.6063 50.5568 80.8818C46.6981 84.7834 42.8323 88.6779 38.9772 92.5832C37.39 94.1918 35.8064 95.8041 34.2515 97.4486C33.8037 97.9215 33.1838 97.9538 32.7288 97.8929C32.1269 97.814 31.5322 97.8033 30.9374 97.7997C21.0024 97.789 11.0673 97.7925 1.13219 97.7925H0.189911V94.1345C0.472951 93.9554 0.755992 94.0306 1.0247 94.0306C10.7377 94.0306 20.4542 94.0234 30.1671 94.0414C30.8049 94.0414 31.2706 93.8694 31.6827 93.3893C34.1942 90.4837 37.0103 87.8682 39.6759 85.1059C43.3697 81.2759 47.2284 77.6035 51.0405 73.8882C51.6173 73.3257 51.8609 72.7667 51.8538 71.9463C51.8144 65.8018 51.8466 59.6573 51.8144 53.5164C51.8144 52.8249 52.0652 52.481 52.6205 52.1298C54.4477 50.9833 56.3538 49.9658 58.1631 48.7799C59.0337 48.2103 59.1698 47.7338 59.1663 46.8918C59.1483 42.9615 59.177 39.0312 59.1412 35.1008C59.134 34.4344 59.3597 34.0439 59.9007 33.7215C63.6555 31.4786 67.4031 29.225 71.1471 26.9643C72.5838 26.0973 73.2072 26.1725 74.7478 27.2796C76.7542 28.7235 78.9433 29.8771 81.0571 31.1526C81.9349 31.6828 82.7625 32.3062 83.7227 32.7075C83.952 32.3851 83.8517 32.0734 83.8517 31.7867C83.8589 24.6176 83.866 17.452 83.8409 10.2828C83.8409 9.56984 84.0273 9.13632 84.6722 8.78521C86.4349 7.82861 88.1618 6.81109 89.8959 5.80074C92.823 4.09533 95.7466 2.38634 98.6594 0.659436C99.1681 0.358481 99.5372 0.340567 100.089 0.680933C101.676 1.64829 103.339 2.49741 104.944 3.43252C106.782 4.50377 108.612 5.59653 110.44 6.68928C112.342 7.82502 114.284 8.89628 116.233 9.9532C116.62 10.161 116.527 10.444 116.53 10.7128C116.545 12.1781 116.538 13.6471 116.538 15.1124C116.538 21.1458 116.548 27.1793 116.527 33.2127C116.527 34.0367 116.871 34.481 117.569 34.8715C119.067 35.7063 120.511 36.6378 121.98 37.5228C123.574 38.483 125.176 39.4324 126.774 40.3926C127.766 40.9874 128.755 41.5964 129.747 42.1912C129.951 42.313 130.073 42.4527 130.073 42.7107C130.07 46.6088 130.07 50.5068 130.07 54.559C124.455 53.0435 118.82 52.7927 113.166 53.2262C112.922 52.8715 113.012 52.5311 113.012 52.2087C113.008 39.4217 112.994 26.6383 113.034 13.8513C113.034 12.7693 112.758 12.2175 111.762 11.6944C109.024 10.2542 106.391 8.62399 103.704 7.09055C102.346 6.31667 100.974 5.56786 99.6661 4.67216C99.4404 4.98745 99.5443 5.29915 99.5443 5.58578C99.5372 12.4504 99.5443 19.3115 99.5372 26.1761C99.53 36.9675 99.4762 47.7624 99.5587 58.5538C99.5694 59.8902 98.989 60.4204 98.0252 60.8683C95.8576 61.875 93.9122 63.1971 92.0742 64.7269C89.4229 66.9304 87.1765 69.4455 85.5249 72.4765C84.991 73.4546 84.5253 74.4721 83.995 75.5362C83.7406 75.2281 83.8553 74.8949 83.8553 74.6047C83.8481 62.2333 83.823 49.8619 83.8875 37.4941C83.8947 36.2079 83.4791 35.5594 82.4222 34.9683C79.6383 33.4097 76.9118 31.7509 74.1638 30.1279C73.7016 29.8556 73.372 29.3791 72.7701 29.225C72.6232 30.0419 72.745 30.8373 72.7486 31.6291C72.7558 35.391 72.7665 39.1565 72.7737 42.9185C72.788 49.9193 72.788 56.92 72.8095 63.9244C72.8346 71.4769 72.9206 79.0295 72.8597 86.582C72.8489 87.9399 73.7339 88.488 74.4003 89.287C74.9162 89.9068 75.4536 90.5266 76.0663 91.0497C76.8223 91.6946 77.134 92.4363 77.091 93.4287C77.0301 94.8332 77.0766 96.2448 77.0766 97.7531L77.0945 97.7603ZM87.413 41.8938C88.4663 41.2632 89.3549 40.7186 90.2613 40.2027C90.5909 40.0164 90.6017 39.7441 90.6017 39.4324C90.6017 37.0893 90.6053 34.7425 90.6053 32.3994C90.6053 32.2704 90.6339 32.1199 90.4118 32.0304C89.5483 32.5463 88.6526 33.0837 87.7498 33.6104C87.5061 33.7501 87.4094 33.9328 87.4094 34.2123C87.4166 36.7167 87.413 39.221 87.413 41.8938ZM90.6053 42.9651C89.9245 43.3663 89.4373 43.7497 88.8855 43.9647C87.653 44.4483 87.3019 45.2795 87.3807 46.5837C87.5061 48.633 87.413 50.6967 87.413 52.9324C88.495 52.2875 89.4301 51.7286 90.3688 51.1732C90.5623 51.0586 90.6053 50.8795 90.6053 50.6788C90.6053 48.1709 90.6053 45.6665 90.6053 42.9686V42.9651ZM87.413 30.7549C88.3839 30.1745 89.2008 29.6657 90.0392 29.2C90.4476 28.9743 90.6196 28.702 90.6088 28.2183C90.5766 26.7816 90.5981 25.3449 90.5981 23.9082C90.5981 22.9265 90.5981 21.9412 90.5981 20.7697C89.5089 21.4253 88.5738 21.9878 87.6351 22.5503C87.4022 22.69 87.4094 22.9086 87.413 23.1307C87.413 25.6172 87.413 28.1 87.413 30.7549ZM90.6017 9.6415C89.6092 10.2398 88.8246 10.745 88.0077 11.1893C87.5635 11.4329 87.3915 11.7231 87.4022 12.2354C87.4345 13.8656 87.413 15.4958 87.413 17.126C87.413 17.9106 87.413 18.6988 87.413 19.6196C88.0221 19.2613 88.4627 18.9138 88.9643 18.7203C90.358 18.1865 90.7342 17.2191 90.6339 15.7717C90.4978 13.8011 90.6017 11.8127 90.6017 9.63792V9.6415ZM67.0771 51.7035C68.0516 51.1231 68.8613 50.6072 69.7032 50.1521C70.1583 49.9085 70.2801 49.5932 70.2729 49.0952C70.2442 47.053 70.2622 45.0144 70.2622 42.9722C70.2622 42.6032 70.2622 42.2342 70.2622 41.7254C69.1945 42.3631 68.2809 42.9149 67.3601 43.4559C67.1415 43.5849 67.0771 43.764 67.0771 44.0041C67.0771 46.512 67.0771 49.02 67.0771 51.6999V51.7035ZM96.0475 6.38116C95.0873 6.9544 94.2776 7.47033 93.4392 7.92892C92.9986 8.16897 92.8266 8.45918 92.8337 8.97152C92.866 10.8525 92.8481 12.7334 92.8481 14.6108C92.8481 15.1483 92.8481 15.6821 92.8481 16.3736C93.9193 15.7287 94.8329 15.1662 95.7573 14.6287C96.0224 14.4747 96.0547 14.2669 96.0511 14.0053C96.0475 11.5189 96.0511 9.02884 96.0511 6.37399L96.0475 6.38116ZM92.8481 27.5053C93.8369 26.9106 94.6717 26.3839 95.5316 25.9074C95.9185 25.6924 96.0726 25.4452 96.0619 24.9938C96.0296 23.7792 96.0511 22.5611 96.0511 21.3465V17.5093C94.9798 18.1542 94.0412 18.7203 93.0989 19.2756C92.8696 19.4118 92.8481 19.6124 92.8481 19.8417C92.8481 22.3282 92.8481 24.8146 92.8481 27.5053ZM67.0771 40.5574C68.1626 39.9125 69.1013 39.3536 70.04 38.8018C70.3482 38.6191 70.255 38.3218 70.255 38.0602C70.2622 36.5948 70.255 35.1331 70.255 33.6677C70.255 32.6896 70.255 31.7151 70.255 30.5973C69.2626 31.1884 68.4278 31.7151 67.5643 32.188C67.163 32.4066 67.0556 32.686 67.0627 33.1195C67.0878 34.4989 67.0699 35.8819 67.0699 37.2612C67.0699 38.3003 67.0699 39.3393 67.0699 40.5574H67.0771ZM64.8163 44.9965C64.1428 45.3942 63.634 45.7847 63.0607 46.014C61.8569 46.4941 61.5452 47.3217 61.6133 48.5757C61.728 50.6537 61.6455 52.7425 61.6455 54.9638C62.6774 54.344 63.5874 53.7851 64.5082 53.2477C64.7626 53.1008 64.8199 52.9037 64.8199 52.635C64.8127 50.1521 64.8163 47.6693 64.8163 44.9965ZM64.8163 33.854C63.849 34.4344 63.0178 34.9611 62.1543 35.4376C61.7638 35.6562 61.6312 35.9105 61.6348 36.3584C61.6563 38.655 61.642 40.9515 61.6491 43.2481C61.6491 43.395 61.5703 43.5849 61.8319 43.7031C62.2295 43.4702 62.6308 43.1621 63.0822 42.9794C64.4831 42.4133 64.9955 41.4818 64.8593 39.9233C64.6873 37.9563 64.8163 35.9643 64.8163 33.8504V33.854ZM61.6455 65.9953C62.6989 65.3647 63.6376 64.8022 64.5763 64.2469C64.7339 64.1537 64.8163 64.0355 64.8163 63.8492C64.8163 61.2946 64.8163 58.7365 64.8163 56.0279C63.7558 56.6657 62.8171 57.2317 61.8784 57.7871C61.685 57.9017 61.642 58.0701 61.6455 58.2743C61.6455 60.8038 61.6455 63.3297 61.6455 65.9953ZM96.0475 28.659C95.6928 28.8632 95.4743 29.0352 95.2271 29.1211C93.2243 29.827 92.5507 31.1884 92.8015 33.2951C93.0057 35.0005 92.8409 36.7489 92.8409 38.6335C93.3676 38.3182 93.7402 38.0172 94.163 37.8632C95.7788 37.2684 96.2338 36.1577 96.0833 34.4774C95.9114 32.5965 96.0439 30.6904 96.0439 28.659H96.0475Z" fill="white"/>
<path d="M131.123 59.7825C126.619 66.9409 125.29 74.8553 125.609 83.1494C126.358 80.2868 127.067 77.417 128.02 74.6116C129.253 70.9823 130.682 67.4425 132.764 64.1965C133.151 63.5946 133.473 63.4692 134.161 63.7844C138.195 65.6367 141.725 68.1339 144.508 71.6236C145.963 73.4508 147.027 75.4858 147.891 77.6534C148.89 80.1614 149.327 82.7517 149.345 85.4281C149.345 85.8867 149.535 86.116 149.904 86.3345C151.323 87.1729 152.72 88.0471 154.132 88.8927C154.429 89.0718 154.562 89.2832 154.544 89.6307C154.422 92.3106 154.311 94.987 154.2 97.6275C153.881 97.889 153.566 97.7851 153.272 97.7851C129.697 97.7923 106.119 97.7851 82.544 97.8102C81.7307 97.8102 81.548 97.563 81.5336 96.7891C81.4906 94.5785 81.3724 92.368 81.2327 90.1574C81.1861 89.4408 81.4154 89.0539 82.0173 88.6204C83.2355 87.739 84.5826 87.1048 85.8688 86.3525C86.2916 86.1052 86.485 85.8401 86.4671 85.3134C86.4026 83.1566 86.7036 80.9962 87.3521 78.9755C88.0937 76.6789 89.165 74.4719 90.6268 72.4978C92.1064 70.4986 93.8083 68.743 95.7896 67.2168C97.6526 65.7801 99.7127 64.7339 101.798 63.7056C102.364 63.4262 102.643 63.5945 102.941 64.0531C103.794 65.3644 104.56 66.7152 105.219 68.1375C107.405 72.8489 108.91 77.7824 110.038 82.8377C110.06 82.9381 110.11 83.0276 110.221 83.1064C110.536 74.8409 109.078 66.9946 104.736 59.8219C108.874 56.6547 125.903 56.4648 131.123 59.7717V59.7825Z" fill="#FF9D00"/>
<path d="M15.8073 116.24C17.2082 117.136 18.0107 118.279 18.3152 119.783C18.9494 122.908 17.57 125.38 14.625 126.469C13.2957 126.96 11.902 127.078 10.5047 127.089C7.12976 127.121 3.75118 127.1 0.376193 127.096C0.268709 127.096 0.161226 127.071 0 127.053V106.538C0.0573247 106.499 0.0824042 106.466 0.103901 106.466C3.89091 106.452 7.68151 106.294 11.4649 106.559C13.1274 106.678 14.6142 107.28 15.9327 108.311C17.2225 109.318 17.8602 111.905 17.2691 113.875C17.0075 114.743 16.6277 115.545 15.8073 116.233V116.24ZM5.14847 122.703C7.35547 122.614 9.48365 122.868 11.5939 122.549C12.6867 122.385 13.2671 121.725 13.2957 120.823C13.3244 119.884 12.7476 119.174 11.6118 118.992C9.47649 118.651 7.32681 118.895 5.14847 118.83V122.703ZM5.15922 114.481C6.53143 114.481 7.79974 114.495 9.06805 114.474C9.75595 114.463 10.4474 114.438 11.1102 114.205C11.859 113.94 12.3356 113.463 12.3141 112.622C12.2926 111.787 11.8196 111.267 11.0458 111.088C9.08955 110.637 7.11543 110.956 5.15922 110.866V114.477V114.481Z" fill="white"/>
<path d="M86.8648 127.103V106.556C86.9222 106.513 86.9652 106.452 87.0082 106.452C90.3007 106.452 93.5969 106.377 96.8823 106.499C99.7163 106.603 102.314 107.566 104.356 109.591C105.818 111.042 106.62 112.894 106.971 114.951C107.348 117.14 107.036 119.268 106.223 121.249C105.535 122.919 104.277 124.294 102.737 125.312C100.777 126.605 98.5591 127.06 96.2518 127.093C93.1526 127.132 90.0535 127.103 86.8613 127.103H86.8648ZM91.9882 122.503C93.794 122.453 95.5101 122.628 97.2155 122.363C100.093 121.916 101.898 119.82 101.966 116.864C102.031 114.001 100.358 111.855 97.5523 111.264C95.7251 110.877 93.8764 111.124 91.9918 111.06V122.503H91.9882Z" fill="white"/>
<path d="M158.349 127.103C156.457 127.103 154.669 127.11 152.878 127.096C152.641 127.096 152.448 126.988 152.287 126.741C151.212 125.133 149.99 123.621 149.026 121.933C148.897 121.707 148.765 121.553 148.457 121.557C147.324 121.578 146.192 121.564 144.985 121.564V127.039H139.851V106.563C139.897 106.527 139.937 106.463 139.98 106.463C143.462 106.481 146.955 106.198 150.424 106.617C153.283 106.961 155.64 108.243 156.787 111.07C158.08 114.255 157.26 118.146 154.139 120.113C153.72 120.378 153.899 120.665 154.128 120.98C155.5 122.886 156.858 124.803 158.216 126.716C158.259 126.777 158.27 126.86 158.356 127.1L158.349 127.103ZM145.003 111.059V117.039C146.117 117.039 147.188 117.057 148.256 117.032C148.779 117.018 149.306 116.964 149.818 116.86C151.47 116.516 152.308 115.355 152.15 113.675C152.018 112.242 151.104 111.36 149.435 111.149C147.984 110.963 146.522 111.088 145.003 111.063V111.059Z" fill="white"/>
<path d="M130.908 106.491V110.981H120.615V114.366H129.715V118.888H120.611V122.514H131.249V126.971C130.679 127.139 116.419 127.178 115.456 126.996V106.488H130.908V106.491Z" fill="white"/>
<path d="M25.3053 106.474H30.3212C30.4896 106.793 30.4143 107.101 30.4143 107.398C30.4215 111.049 30.4251 114.7 30.4143 118.354C30.4143 118.942 30.5039 119.511 30.658 120.06C31.2312 122.08 32.6608 122.643 34.4701 122.697C36.1181 122.747 37.7662 121.582 38.1353 119.852C38.3574 118.816 38.4398 117.806 38.447 116.778C38.4685 113.679 38.4541 110.58 38.4541 107.484C38.4541 107.183 38.4541 106.882 38.4541 106.509H43.4485C43.5596 106.588 43.5632 106.728 43.5632 106.864C43.5524 110.791 43.5739 114.721 43.5166 118.648C43.4844 120.912 42.8502 123.048 41.3347 124.757C40.1846 126.054 38.644 126.856 36.9135 127.179C35.4446 127.451 33.9291 127.505 32.4673 127.325C29.6584 126.982 27.2113 125.369 25.9824 122.517C25.4522 121.285 25.2838 119.988 25.2802 118.666C25.2694 114.764 25.2802 110.866 25.2802 106.964C25.2802 106.828 25.2981 106.696 25.316 106.477L25.3053 106.474Z" fill="white"/>
<path d="M181.347 108.401C180.842 109.623 180.322 110.769 179.899 111.948C179.677 112.571 179.455 112.622 178.903 112.303C177.273 111.357 175.543 110.715 173.619 110.744C172.816 110.755 172.06 110.945 171.365 111.353C170.459 111.887 170.444 113.03 171.383 113.499C172.852 114.237 174.478 114.506 176.048 114.936C177.506 115.334 178.921 115.807 180.139 116.77C182.583 118.702 182.364 122.875 180.415 124.907C179.29 126.078 177.95 126.723 176.359 127.049C172.974 127.737 169.738 127.461 166.654 125.86C164.798 124.896 164.748 124.731 165.604 122.85C165.916 122.166 166.188 121.464 166.521 120.79C166.704 120.421 166.897 120.231 167.388 120.618C169.574 122.345 172.053 123.162 174.862 122.729C176.005 122.553 176.836 121.969 176.843 121.288C176.854 120.17 175.858 120.084 175.134 119.83C173.181 119.146 171.103 118.848 169.194 118.039C167.804 117.451 165.579 115.71 165.59 113.682C165.597 112.174 165.511 110.629 166.367 109.376C167.127 108.261 168.187 107.383 169.577 106.925C172.494 105.958 175.374 105.968 178.294 106.832C179.398 107.158 180.397 107.656 181.347 108.405V108.401Z" fill="white"/>
<path d="M69.5133 122.485H79.3839V127.035H64.3935V106.484H69.5133V122.485Z" fill="white"/>
<path d="M51.3521 106.474H56.4146V127.039H51.3521V106.474Z" fill="white"/>
<path d="M49.8868 93.9053H53.81V97.7496C52.6026 97.9001 51.3629 97.6565 50.0444 97.9108C49.7542 96.639 50.0158 95.3097 49.8868 93.9053Z" fill="white"/>
<path d="M58.7972 97.7529H55.003V93.9121H58.7972V97.7529Z" fill="white"/>
<path d="M53.8279 88.6851V92.4649H49.9585V88.6851H53.8279Z" fill="white"/>
<path d="M58.7828 92.4796H54.9958V88.6782H58.7828V92.4796Z" fill="white"/>
</svg>
