<svg width="67" height="88" viewBox="0 0 67 88" fill="none" xmlns="http://www.w3.org/2000/svg">
<path fill-rule="evenodd" clip-rule="evenodd" d="M27.268 1.16548C26.0008 1.92503 24.8267 3.22342 23.9093 4.87975C22.6589 7.13681 22.4986 7.8882 22.4986 11.5041V15.5826L25.7374 21.7094C27.519 25.0791 28.9762 27.9403 28.9762 28.0669C28.9762 28.1941 26.1131 28.2977 22.6133 28.2977H16.2505L8.12523 36.4335L0 44.5693L0.933245 45.6187C1.44665 46.1959 2.51424 47.0682 3.30594 47.5571C4.62688 48.3733 4.65663 48.4467 3.66581 48.4482L2.58622 48.4501V57.9308V67.411L12.8889 77.7055L23.192 88L24.6578 86.5956L26.1237 85.1911L16.5 75.5588L6.87627 65.9265L7.01014 59.3424L7.14448 52.7588L8.80849 53.6518C11.1385 54.9027 12.279 56.6348 12.5463 59.3304C12.7751 61.634 12.7996 61.6628 17.6923 65.3224L22.6085 68.9992L29.6196 64.3627L36.6307 59.7258L36.6422 53.7189L36.6533 47.7121L31.9664 43.043L27.2796 38.3739H22.7885H18.2969L15.0173 41.4678C11.6001 44.6917 9.65537 45.5246 7.06483 44.8745C5.82019 44.5621 5.96989 44.3601 11.7325 38.5841L17.6861 32.6161L24.8905 32.6319L32.095 32.6482L41.3315 41.0729L50.568 49.497V63.2563V77.0151L55.9851 82.4164L61.4023 87.8182L62.6944 86.4694L63.9866 85.1206L59.4365 80.5897L54.8863 76.0588V65.2461V54.4339L61.0851 35.852C64.4942 25.6319 67.09 17.1506 66.854 17.0047C66.6179 16.8589 65.3699 16.6146 64.0801 16.4621C61.3629 16.1401 58.6937 16.8666 56.4568 18.5368L54.9084 19.6927L54.7774 11.1601L54.6464 2.62748L53.3212 2.4749C51.125 2.22252 47.0672 3.68548 44.9594 5.49008C42.2043 7.84838 41.0359 10.52 40.6079 15.441L40.2519 19.5401L34.9739 9.77101C32.071 4.39801 29.588 0.000962591 29.456 2.95613e-06C29.3241 -0.0014365 28.3395 0.523004 27.268 1.16548ZM27.638 6.34415C27.3573 6.68194 26.8703 7.98273 26.555 9.23409C25.7638 12.3764 26.2523 13.9483 30.5764 22.1652L34.2273 29.1024L40.3584 34.8228C48.5667 42.4811 48.6204 42.5186 46.8235 39.3307C46.0064 37.8806 41.4702 29.7276 36.743 21.2118C30.2837 9.5762 28.0213 5.88209 27.638 6.34415ZM48.6928 7.75146C45.2502 10.0963 45.0669 10.6731 44.8985 19.7004L44.7468 27.8299L47.7774 33.6367L50.8079 39.4439L50.9302 35.4302C50.9974 33.2226 50.8895 25.8411 50.6903 19.0272L50.3281 6.6378L48.6928 7.75146ZM58.901 21.6C58.0742 22.1297 56.8536 23.3849 56.189 24.3891C55.0432 26.1203 54.966 26.663 54.7035 34.8137L54.4267 43.412L57.7604 33.3358C59.5943 27.7939 61.2262 22.6661 61.3874 21.9401C61.7449 20.3284 61.0371 20.2315 58.901 21.6ZM18.1501 44.1797C16.1751 46.264 13.1201 48.3042 11.2469 48.7893L9.66017 49.2005L11.637 50.509C14.1076 52.1437 16.024 54.9866 16.3637 57.521C16.5863 59.1821 16.9975 59.7455 19.2004 61.4085C20.6173 62.4785 22.0798 63.4698 22.4511 63.6123C22.822 63.7548 25.3056 62.42 27.97 60.6456L32.8147 57.4203V53.5227V49.6256L29.3245 46.1589L25.8348 42.6923H22.6973C19.8112 42.6923 19.446 42.8117 18.1501 44.1797Z" fill="#FF9D00"/>
</svg>
