<svg width="22" height="21" viewBox="0 0 22 21" fill="none" xmlns="http://www.w3.org/2000/svg">
<path d="M9.9147 18.1651L9.91366 18.1642C7.10955 15.6214 4.84067 13.5624 3.26412 11.6349C1.69586 9.71759 0.888238 8.0186 0.888238 6.20833C0.888238 3.27054 3.18655 0.972222 6.12435 0.972222C7.79067 0.972222 9.40125 1.75145 10.4495 2.98241L10.9993 3.62812L11.5492 2.98241C12.5975 1.75145 14.208 0.972222 15.8743 0.972222C18.8121 0.972222 21.1105 3.27054 21.1105 6.20833C21.1105 8.01861 20.3028 9.71763 18.7344 11.6365C17.1584 13.5646 14.8908 15.6253 12.0883 18.172L12.086 18.1741L12.0845 18.1755L11.0012 19.1542L9.9147 18.1651Z" stroke="white" stroke-width="1.44444"/>
</svg>
