<svg width="100" height="88" viewBox="0 0 100 88" fill="none" xmlns="http://www.w3.org/2000/svg">
<path fill-rule="evenodd" clip-rule="evenodd" d="M40.5641 0.746275C27.0462 3.7206 15.3959 12.9014 9.70329 25.0647C7.71652 29.3094 7.5792 30.6722 9.05816 31.4637C10.6826 32.3334 11.5959 31.5501 13.3266 27.8037C18.8703 15.8049 29.0507 7.67256 41.8552 5.01432C47.1255 3.9201 55.0787 4.14983 59.9957 5.53811C72.1409 8.96713 82.2665 18.1216 86.737 29.7153C87.9694 32.9099 89.6371 40.3889 89.2126 40.8138C89.0952 40.9308 88.5943 40.6221 88.0994 40.1272C86.921 38.9488 85.2663 38.976 84.4178 40.1877C84.0481 40.7153 83.7454 41.3207 83.7454 41.5323C83.7454 41.7443 85.2365 43.45 87.0587 45.3228C91.3674 49.7502 91.6001 49.7515 95.9541 45.3716C99.4302 41.8752 99.9052 40.7814 98.5009 39.5106C97.4084 38.5217 96.9494 38.6033 95.2589 40.0875L93.7877 41.379L93.4923 38.7657C92.4219 29.306 88.0739 20.2508 81.2029 13.1708C75.7867 7.59008 69.3561 3.76465 61.4138 1.39831C56.1906 -0.157942 46.1069 -0.473165 40.5641 0.746275ZM36.5349 29.1112C29.1418 35.4481 24.1552 40.024 24.1552 40.4718C24.1552 42.0656 25.1372 42.6473 28.0415 42.7751L30.8483 42.8982L30.9671 55.6366C31.072 66.9346 31.167 68.436 31.8052 68.9149C32.8455 69.6952 66.4189 69.6952 67.4592 68.9149C68.0974 68.436 68.1924 66.9346 68.2973 55.6366L68.4161 42.8982L71.2229 42.7751C74.1272 42.6473 75.1092 42.0656 75.1092 40.4718C75.1092 39.565 50.6837 18.5007 49.6322 18.5007C49.2375 18.5007 43.3437 23.2753 36.5349 29.1112ZM41.0667 30.9348L32.7176 38.1482L41.1747 38.2652C45.8262 38.3296 53.4386 38.3296 58.0905 38.2652L66.5493 38.1482L58.1342 30.9153C53.5056 26.937 49.6508 23.6911 49.5674 23.7019C49.4845 23.7127 45.6591 26.9677 41.0667 30.9348ZM3.3103 42.5838C0.0229017 45.8902 -0.594591 47.123 0.491851 48.2095C1.36239 49.08 3.20709 48.8028 4.30347 47.6356L5.32902 46.5439L6.09247 51.0767C7.6647 60.4151 11.4789 67.9049 18.1098 74.674C24.0684 80.7574 29.6556 84.1195 37.8506 86.5536C43.2699 88.1634 52.4027 88.4769 58.2685 87.2544C72.0403 84.3842 83.7795 75.2444 89.5611 62.8907C91.5479 58.6459 91.6852 57.2831 90.2062 56.4916C88.5817 55.622 87.6685 56.4053 85.9377 60.1517C80.3941 72.1505 70.2137 80.2828 57.4091 82.941C52.1389 84.0353 44.1857 83.8055 39.2687 82.4173C27.1235 78.9882 16.9979 69.8338 12.5273 58.24C11.295 55.0455 9.62729 47.5665 10.0518 47.1416C10.1692 47.0246 10.6701 47.3333 11.165 47.8282C12.3434 49.0066 13.9981 48.9794 14.8466 47.7677C15.2162 47.24 15.519 46.6346 15.519 46.423C15.519 46.211 14.0279 44.5054 12.2056 42.6326C7.89702 38.2052 7.66427 38.2039 3.3103 42.5838ZM35.3824 53.9094V65.1365H38.621H41.8596V58.0423C41.8596 52.1692 41.9761 50.8314 42.5379 50.2696C43.5389 49.2691 55.7255 49.2691 56.7265 50.2696C57.2882 50.8314 57.4048 52.1692 57.4048 58.0423V65.1365H60.6434H63.882V53.9094V42.6822H49.6322H35.3824V53.9094ZM46.2727 59.415L46.3936 64.9206H49.6322H52.8708L52.9917 59.415L53.1126 53.9094H49.6322H46.1518L46.2727 59.415Z" fill="#FF9D00"/>
</svg>
