<svg width="46" height="46" viewBox="0 0 46 46" fill="none" xmlns="http://www.w3.org/2000/svg">
<path fill-rule="evenodd" clip-rule="evenodd" d="M6.79111 0.552091L6.64219 0.674495L6.66101 6.49868L6.67975 12.3229H10.4069H14.1341L14.1341 10.5905V8.85807L11.5029 8.82309C8.48524 8.78301 8.67319 8.82946 8.67319 8.12364C8.67319 7.41783 8.48524 7.46427 11.5026 7.42419L14.1336 7.38922L14.1543 6.82966C14.1784 6.17945 14.3371 5.75796 14.6909 5.40411C15.1828 4.91218 15.9931 4.76411 16.6229 5.05103C16.7978 5.13069 17.5435 5.69655 18.2802 6.30843L19.6196 7.4209L21.9053 7.42251C23.8885 7.42398 24.2055 7.43874 24.3009 7.53408C24.3792 7.61242 24.4108 7.78035 24.4108 8.11777C24.4108 8.83407 24.4361 8.82309 22.7791 8.82309C22.0223 8.82309 21.4051 8.84666 21.4075 8.87555C21.4098 8.90444 21.6223 9.09182 21.8796 9.29201C22.1369 9.49212 22.4419 9.73539 22.5573 9.8324C22.6727 9.92948 23.0819 10.2647 23.4666 10.5775C23.8513 10.8901 24.229 11.2066 24.3059 11.2808C24.3828 11.355 24.7478 11.6586 25.1169 11.9554C25.486 12.2523 25.9299 12.6133 26.1034 12.7575C26.2767 12.9018 26.439 13.0198 26.4639 13.0198C26.4888 13.0198 26.5092 10.2559 26.5092 6.87785C26.5092 0.793402 26.5078 0.734438 26.3666 0.582797L26.2239 0.429688H16.582C7.50259 0.429688 6.93135 0.436822 6.79111 0.552091ZM10.142 3.3501C8.7034 3.37095 8.67319 3.38522 8.67319 4.04277C8.67319 4.35312 8.70473 4.45447 8.8449 4.59457L9.01655 4.76628H16.5582C23.2709 4.76628 24.117 4.75432 24.2553 4.65738C24.3919 4.56176 24.4108 4.48629 24.4108 4.03647C24.4108 3.70207 24.3794 3.49825 24.32 3.44908C24.2344 3.37801 13.4247 3.30261 10.142 3.3501ZM15.7272 6.18008C15.6253 6.21414 15.5068 6.3271 15.4639 6.43097C15.4098 6.56191 15.3916 7.49386 15.4044 9.47079L15.4229 12.3217L16.2972 12.3408C17.5334 12.3678 17.9869 12.5836 18.385 13.3345L18.5704 13.6843L18.5882 17.0254L18.6061 20.3666L24.058 20.3828C28.4154 20.3958 29.5281 20.4172 29.6007 20.4897C29.7152 20.6039 29.792 21.7254 29.7039 21.9952C29.6683 22.1043 29.5622 22.222 29.4665 22.2583C29.3637 22.2974 27.1243 22.3231 23.9494 22.3216C21.0102 22.3202 18.6054 22.3356 18.6054 22.3558C18.6054 22.3759 18.6054 22.9275 18.6054 23.5815V24.7706H24.0503C29.2193 24.7706 29.5009 24.777 29.6099 24.8974C29.673 24.9671 29.733 25.1402 29.7432 25.2819C29.7533 25.4237 29.781 25.5397 29.8047 25.5398C29.8284 25.5399 30.1432 25.4001 30.5042 25.2292C30.8651 25.0582 31.4853 24.8095 31.8824 24.6764C32.2794 24.5433 32.618 24.4206 32.6348 24.4038C32.6916 24.347 32.6738 19.8788 32.6164 19.78C32.585 19.7261 32.1797 19.37 31.7156 18.9888C31.2515 18.6074 30.8266 18.2573 30.7713 18.2106C30.581 18.0496 28.4249 16.2704 27.4506 15.4704C26.9136 15.0294 26.0335 14.3043 25.495 13.8591C24.9564 13.414 23.7918 12.4536 22.907 11.725C22.0222 10.9964 21.2353 10.3475 21.1584 10.2828C20.8926 10.0597 18.5838 8.15736 18.1134 7.77392C17.8538 7.56233 17.3154 7.11916 16.9168 6.78902C16.1426 6.14777 16.0165 6.08321 15.7272 6.18008ZM0.301813 13.6498C0.217809 13.6836 0.115479 13.774 0.0744916 13.8506C0.0225924 13.9476 0 17.7323 0 26.3303V38.6707L0.144996 38.855L0.289921 39.0394H8.66605H17.0422L17.1943 38.8775L17.3464 38.7156V26.3191V13.9227L17.1747 13.7511L17.003 13.5794L8.72879 13.5838C4.13774 13.5863 0.386656 13.6157 0.301813 13.6498ZM3.73891 18.0177L3.5672 18.1894V19.7881C3.5672 21.8644 3.42871 21.693 5.10599 21.693C6.78327 21.693 6.64478 21.8644 6.64478 19.7881V18.1894L6.47307 18.0177C6.30422 17.8488 6.28197 17.846 5.10599 17.846C3.93 17.846 3.90776 17.8488 3.73891 18.0177ZM10.8778 18.0132L10.7016 18.1894V19.7881C10.7016 21.7136 10.691 21.6868 11.4562 21.7028C12.1686 21.7178 13.3804 21.6878 13.5063 21.6521C13.7379 21.5863 13.7792 21.297 13.7792 19.739C13.7792 17.7277 13.9068 17.888 12.283 17.859L11.054 17.8371L10.8778 18.0132ZM3.6761 24.5763C3.5851 24.7061 3.5672 24.999 3.5672 26.3548V27.9779L3.7515 28.1228C3.92147 28.2566 4.02793 28.2678 5.11858 28.2678C6.28114 28.2678 6.30436 28.2649 6.47307 28.0961L6.64478 27.9245V26.3152C6.64478 24.2467 6.79027 24.4208 5.06178 24.4208C3.82166 24.4208 3.78186 24.4253 3.6761 24.5763ZM10.8415 24.5607C10.7096 24.6926 10.7016 24.7939 10.7016 26.3392V27.9779L10.8859 28.1228C11.0559 28.2566 11.1623 28.2678 12.253 28.2678C13.4155 28.2678 13.4388 28.2649 13.6075 28.0961L13.7792 27.9245V26.3257C13.7792 24.2492 13.9181 24.4208 12.2377 24.4208C11.0746 24.4208 10.971 24.4312 10.8415 24.5607ZM34.7977 25.3754C32.2151 25.5514 30.0552 26.5272 28.2532 28.332C26.8334 29.7539 25.9612 31.3657 25.487 33.4437C25.3242 34.1572 25.2837 36.1391 25.4156 36.9418C26.0241 40.6471 28.5582 43.687 32.0567 44.9085C33.2221 45.3154 33.9559 45.4313 35.3572 45.4297C36.7245 45.4281 37.4591 45.3169 38.582 44.9415C39.5229 44.6268 40.9658 43.8414 41.6173 43.2891C44.074 41.2067 45.3963 38.4566 45.3928 35.4372C45.3908 33.7521 45.051 32.3219 44.3033 30.8523C43.106 28.4991 40.9917 26.6905 38.4698 25.8623C37.3767 25.5033 35.8638 25.3027 34.7977 25.3754ZM18.6054 27.8831V29.1072H22.3009H25.9963L26.2702 28.7055C26.4209 28.4845 26.8983 27.9429 27.331 27.5017C27.7638 27.0606 28.1179 26.6906 28.1179 26.6794C28.1179 26.6682 25.9776 26.6591 23.3616 26.6591H18.6054V27.8831ZM33.7835 26.8653C32.8305 27.0555 32.4477 27.1833 31.5802 27.6012C30.0994 28.3147 28.9747 29.3037 28.0753 30.6834C27.4557 31.6341 27.0052 32.7628 26.7783 33.9334C26.651 34.59 26.6744 36.429 26.8183 37.0809C27.3399 39.4431 28.648 41.3917 30.5482 42.6367C32.1013 43.6543 33.5097 44.0747 35.367 44.0752C37.1314 44.0756 38.638 43.6308 40.116 42.6731C40.7411 42.2681 41.0705 41.9843 41.0167 41.8972C40.9968 41.8651 41.0252 41.8559 41.0797 41.8768C41.2136 41.9282 42.0564 41.0058 42.5598 40.257C43.2055 39.2965 43.6757 38.1487 43.9324 36.906C44.0495 36.3389 44.0508 34.5776 43.9345 33.9683C43.2507 30.3859 40.6799 27.7103 37.1408 26.8977C36.8859 26.8391 36.1945 26.7799 35.5671 26.763C34.6592 26.7385 34.3225 26.7578 33.7835 26.8653ZM34.9376 29.5054C34.1445 30.227 33.0162 31.2702 32.124 32.107C31.5748 32.622 31.0152 33.1375 30.8807 33.2525C30.7142 33.3947 30.6359 33.5213 30.6359 33.6485C30.6359 33.9663 30.7387 34.0033 31.6206 34.0033C32.1889 34.0033 32.4593 34.0299 32.5096 34.0907C32.5563 34.1474 32.5906 35.4501 32.607 37.7958C32.6266 40.6137 32.652 41.4332 32.7218 41.5029C32.7911 41.5723 33.3842 41.5923 35.3664 41.5923C37.815 41.5923 37.9256 41.5867 38.0208 41.4566C38.1035 41.3435 38.1201 40.723 38.1201 37.746C38.1201 35.0588 38.1409 34.1503 38.204 34.0872C38.2596 34.0316 38.5615 34.0033 39.0993 34.0033C39.9709 34.0033 40.0791 33.965 40.0777 33.6571C40.077 33.5208 39.9077 33.3232 39.3607 32.8205C38.9669 32.4585 38.2512 31.7947 37.7703 31.3455C35.8868 29.5859 35.4971 29.2471 35.3587 29.2489C35.281 29.25 35.0914 29.3654 34.9376 29.5054ZM3.73891 31.0974L3.5672 31.2691V32.8678C3.5672 34.9431 3.43046 34.7727 5.0955 34.7727C6.78467 34.7727 6.64478 34.9438 6.64478 32.8783V31.2691L6.47307 31.0974C6.30422 30.9285 6.28197 30.9257 5.10599 30.9257C3.93 30.9257 3.90776 30.9285 3.73891 31.0974ZM10.8733 31.0974L10.7016 31.2691V32.881C10.7016 34.3997 10.7097 34.501 10.8415 34.6328C10.9709 34.7622 11.0746 34.7727 12.2282 34.7727C13.9117 34.7727 13.7792 34.9362 13.7792 32.859V31.2691L13.6075 31.0974C13.4386 30.9285 13.4164 30.9257 12.2404 30.9257C11.0644 30.9257 11.0422 30.9285 10.8733 31.0974ZM18.6054 32.2547L18.6053 33.4787L21.4225 33.4597L24.2396 33.4407L24.3274 32.9776C24.3758 32.723 24.5228 32.1974 24.6542 31.8097C24.7855 31.4221 24.8785 31.0903 24.8608 31.0726C24.843 31.0548 23.4283 31.0381 21.717 31.0355L18.6054 31.0306V32.2547ZM18.6046 36.941C18.6042 37.8066 18.5843 38.6328 18.5605 38.7771L18.5171 39.0394H21.593H24.6689L24.5457 38.6721C24.344 38.0712 24.2046 37.3125 24.1154 36.3305L24.0314 35.4054L21.3183 35.3863L18.6053 35.3672L18.6046 36.941Z" fill="#FF9D00"/>
</svg>
