<svg width="35" height="34" viewBox="0 0 35 34" fill="none" xmlns="http://www.w3.org/2000/svg">
<path fill-rule="evenodd" clip-rule="evenodd" d="M14.256 0.16419C8.78484 1.13018 4.09746 4.64814 1.66257 9.61579C0.604111 11.7751 0.118699 13.768 0.0141331 16.3838C-0.319197 24.7202 5.27343 31.823 13.6354 33.6832C15.4992 34.0978 18.6849 34.1066 20.61 33.7027C22.3455 33.3385 24.2799 32.5655 25.9985 31.5497C27.0157 30.9483 27.7518 30.3511 28.9973 29.1166C29.9051 28.2168 30.8823 27.1187 31.1687 26.6763C33.1866 23.5597 34.1102 20.5293 34.1102 17.024C34.1102 12.5244 32.5075 8.52019 29.4196 5.30498C26.9161 2.69838 24.3788 1.23318 20.8803 0.374174C19.2845 -0.0177692 15.8946 -0.12518 14.256 0.16419ZM11.7041 6.50243C9.83007 6.74898 8.13099 7.81128 7.30343 9.25386C6.48838 10.6744 6.44286 11.0821 6.44144 16.9529C6.44044 21.8123 6.46747 22.4573 6.70847 23.3318C7.2468 25.2847 8.679 26.7768 10.5777 27.3629C11.3311 27.5955 11.9949 27.6228 16.8969 27.6228C22.737 27.6228 23.2469 27.5749 24.5969 26.8987C25.382 26.5055 26.4792 25.444 26.8482 24.7206C27.6023 23.2425 27.6381 22.8904 27.6367 16.9529C27.6354 11.6271 27.6229 11.3681 27.3253 10.4956C26.5296 8.16268 24.8387 6.83121 22.2437 6.4939C21.0351 6.33669 12.9136 6.34338 11.7041 6.50243ZM11.6639 8.35716C10.6447 8.53328 9.91301 8.93177 9.30568 9.64125C8.32433 10.7878 8.28976 11.0387 8.28976 17.024C8.28976 23.22 8.31821 23.3968 9.50428 24.583C10.6518 25.7304 10.9262 25.7734 17.1103 25.7734C23.0314 25.7734 23.3687 25.7257 24.4667 24.7338C25.7228 23.599 25.8596 22.8323 25.8596 16.9338C25.8596 12.3435 25.7754 11.309 25.3287 10.4086C24.9662 9.6781 24.1263 8.92636 23.3047 8.59716C22.5473 8.29371 22.3182 8.28033 17.4659 8.2543C14.6882 8.23936 12.0773 8.28574 11.6639 8.35716ZM22.2318 10.2173C21.7726 10.4685 21.5916 10.7845 21.5916 11.3358C21.5916 12.0148 22.061 12.4715 22.7588 12.4715C23.4222 12.4715 23.8561 12.1016 23.961 11.4466C24.0338 10.9911 23.9866 10.861 23.6118 10.4863C23.1614 10.0359 22.7205 9.94997 22.2318 10.2173ZM15.3456 11.8243C13.9729 12.2698 12.6933 13.4686 11.9974 14.9612C11.6178 15.7751 11.5381 17.5854 11.8369 18.6093C12.3249 20.2818 13.9862 21.8968 15.6223 22.2893C16.7879 22.5688 18.414 22.4142 19.4044 21.9296C20.4719 21.4074 21.5063 20.3695 21.9917 19.3338C22.3307 18.6106 22.3741 18.3481 22.3741 17.024C22.3741 15.6591 22.338 15.4568 21.9558 14.6785C21.4239 13.595 20.4692 12.6394 19.3926 12.1126C18.6824 11.7651 18.345 11.6936 17.2605 11.6603C16.4287 11.6348 15.7501 11.693 15.3456 11.8243ZM16.3742 13.4873C15.546 13.6321 15.0414 13.9222 14.4183 14.612C13.709 15.3971 13.4825 15.9809 13.4825 17.024C13.4825 18.0705 13.709 18.651 14.4278 19.4467C15.135 20.2294 15.9629 20.5815 17.0865 20.5775C19.1045 20.5704 20.6618 19.0162 20.6471 17.024C20.6304 14.7567 18.6223 13.0945 16.3742 13.4873Z" fill="white"/>
</svg>
