<svg width="17" height="22" viewBox="0 0 17 22" fill="none" xmlns="http://www.w3.org/2000/svg">
<path d="M8.56982 0.603027C6.44273 0.605537 4.40348 1.45163 2.89941 2.95571C1.39533 4.45979 0.549233 6.49904 0.546723 8.62612C0.544176 10.3644 1.11197 12.0555 2.16301 13.44C2.16301 13.44 2.38182 13.7281 2.41756 13.7697L8.56982 21.0255L14.725 13.766C14.7571 13.7274 14.9766 13.44 14.9766 13.44L14.9774 13.4378C16.0279 12.0539 16.5954 10.3636 16.5929 8.62612C16.5904 6.49904 15.7443 4.45979 14.2402 2.95571C12.7362 1.45163 10.6969 0.605537 8.56982 0.603027ZM8.56982 11.5436C7.9928 11.5436 7.42873 11.3725 6.94895 11.0519C6.46917 10.7313 6.09523 10.2757 5.87441 9.7426C5.65359 9.2095 5.59582 8.62289 5.70839 8.05695C5.82096 7.49101 6.09883 6.97117 6.50684 6.56315C6.91486 6.15513 7.43471 5.87726 8.00065 5.76469C8.56658 5.65212 9.15319 5.7099 9.6863 5.93072C10.2194 6.15153 10.675 6.52548 10.9956 7.00525C11.3162 7.48503 11.4873 8.0491 11.4873 8.62612C11.4863 9.39959 11.1787 10.1411 10.6317 10.688C10.0848 11.235 9.34329 11.5426 8.56982 11.5436Z" fill="white"/>
</svg>
