<svg width="19" height="18" viewBox="0 0 19 18" fill="none" xmlns="http://www.w3.org/2000/svg">
<path d="M10.5423 4.99526C12.5875 4.99526 13.4598 5.86759 13.4598 7.91275H15.4048C15.4048 4.77645 13.6786 3.05027 10.5423 3.05027V4.99526ZM13.8702 10.2886C13.6833 10.1187 13.4378 10.0281 13.1854 10.0359C12.933 10.0437 12.6935 10.1493 12.5175 10.3304L10.1903 12.7237C9.63013 12.6167 8.50398 12.2656 7.34477 11.1093C6.18555 9.94916 5.83448 8.82009 5.73042 8.26382L8.12179 5.93566C8.30307 5.75977 8.40881 5.52024 8.41661 5.26776C8.42442 5.01529 8.33368 4.76968 8.16361 4.58292L4.57023 0.631668C4.40009 0.444323 4.16361 0.330684 3.91103 0.314886C3.65844 0.299089 3.40965 0.382376 3.21749 0.547061L1.10717 2.35688C0.939037 2.52562 0.838684 2.7502 0.825147 2.98803C0.81056 3.23115 0.532426 8.99028 4.99813 13.4579C8.89395 17.3528 13.7739 17.6377 15.1179 17.6377C15.3144 17.6377 15.435 17.6319 15.4671 17.6299C15.7048 17.6166 15.9293 17.5158 16.0972 17.3469L17.9061 15.2357C18.0709 15.0436 18.1543 14.7949 18.1387 14.5423C18.1231 14.2897 18.0096 14.0532 17.8224 13.8829L13.8702 10.2886Z" fill="#FF9D00"/>
</svg>
