<svg width="40" height="39" viewBox="0 0 40 39" fill="none" xmlns="http://www.w3.org/2000/svg">
<path d="M35.7824 22.2904V16.7209H33.9299V18.5733H30.2128V16.7209H28.3604V22.2904H24.6433V20.4379H26.4957V18.5733H24.6433V14.8745H22.7908V18.5794H15.3567V16.727H13.5042V22.2965H11.6396V39.0051H13.5042V24.1428H17.2213V27.8599H22.7908V24.1428H28.3604V26.0075H33.9299V24.1428H37.647V39.0051H39.5007V22.2904H35.7824ZM22.7908 22.2904H20.9262V26.0075H19.0738V22.2904H15.3567V20.4379H22.7908V22.2904ZM33.9299 22.2904H32.0775V24.1428H30.2128V20.4379H33.9299V22.2904Z" fill="#FF9D00"/>
<path d="M33.9295 29.7246H30.2124V33.4295H33.9295V29.7246Z" fill="#FF9D00"/>
<path d="M30.2127 35.2939H26.4956V38.9988H30.2127V35.2939Z" fill="#FF9D00"/>
<path d="M26.4959 29.7246H22.791V33.4295H26.4959V29.7246Z" fill="#FF9D00"/>
<path d="M22.7903 35.2939H19.0732V38.9988H22.7903V35.2939Z" fill="#FF9D00"/>
<path d="M19.0735 29.7246H15.3564V33.4295H19.0735V29.7246Z" fill="#FF9D00"/>
<path d="M33.9298 11.1513V14.8683H35.7823V11.1513H37.6469V9.28662H35.7823V7.43417H33.9298V9.28662H11.6395V7.43417H33.9298V5.58172H9.7871V1.86464H7.93465V5.58172H6.07002V1.86464H7.93465V0H4.21757V5.58172H0.500488V7.43417H2.35293V11.1513H4.21757V7.43417H9.7871V11.1513H33.9298Z" fill="#FF9D00"/>
<path d="M4.21729 11.1514V38.999H6.06973V13.0038H7.93437V38.999H9.78682V11.1514H4.21729Z" fill="#FF9D00"/>
</svg>
