<svg width="21" height="21" viewBox="0 0 21 21" fill="none" xmlns="http://www.w3.org/2000/svg">
<path fill-rule="evenodd" clip-rule="evenodd" d="M2.36072 0.5317C2.01466 0.683715 1.34483 1.31809 1.01186 1.80927C0.2781 2.89133 0 3.83128 0 5.22867C0 8.01842 1.22997 10.4643 4.33621 13.8515C5.3329 14.9383 6.8662 16.3791 7.77875 17.0864C9.38861 18.334 11.3336 19.3977 12.9619 19.921C14.1913 20.316 14.8094 20.4273 15.7897 20.4297C17.1854 20.4331 18.1915 19.9931 19.3247 18.8837C19.8251 18.3936 19.9758 18.1933 20.0469 17.9232C20.1509 17.5282 20.0946 17.1243 19.8897 16.7939C19.8105 16.6661 18.9688 15.7897 18.0192 14.8462C16.1553 12.9941 16.0026 12.8892 15.3435 13.0081C14.8888 13.0902 14.8028 13.154 13.7732 14.1736L12.8016 15.1358L12.0704 14.7204C9.11685 13.0424 7.25986 11.1653 5.68321 8.26401L5.38019 7.70642L6.32579 6.74998C6.85923 6.21034 7.32286 5.67024 7.38958 5.51049C7.55019 5.12604 7.53827 4.65575 7.35901 4.30993C7.16829 3.94197 3.82475 0.614983 3.53604 0.505926C3.24037 0.394237 2.64385 0.407318 2.36072 0.5317Z" fill="#FF9D00"/>
</svg>
