<svg width="82" height="88" viewBox="0 0 82 88" fill="none" xmlns="http://www.w3.org/2000/svg">
<path fill-rule="evenodd" clip-rule="evenodd" d="M27.3217 0.874358C26.8931 1.34021 24.8362 3.76934 22.7508 6.27235L18.959 10.8232L18.8506 8.76367C18.6964 5.83229 18.7724 5.87736 13.9807 5.87736C10.5267 5.87736 10.1986 5.91159 9.67124 6.32652L9.1003 6.77547V14.764C9.1003 19.6517 9.01926 22.8024 8.89164 22.8813C8.7768 22.9523 6.72924 25.3462 4.34149 28.2013L0 33.3921V54.9624V76.5328L0.531931 77.0645L1.06365 77.5964H6.92381H12.7838V80.0617C12.7838 81.9058 12.8598 82.5901 13.086 82.7777C13.2979 82.9535 15.079 83.0284 19.0445 83.0284H24.7008V84.9809C24.7008 86.7663 24.7463 86.9786 25.2343 87.4665L25.7677 88L53.3065 87.995L80.8456 87.9902L81.374 87.4616L81.9027 86.9331V65.3933V43.8538L81.4256 43.2287C81.1634 42.8848 80.1639 41.6788 79.2047 40.5484C78.2457 39.418 77.2659 38.2536 77.0276 37.9611C76.7892 37.6686 76.2467 37.0335 75.8218 36.5497C75.3966 36.0659 73.587 33.915 71.7999 31.7699C70.0127 29.6248 66.7124 25.6759 64.4657 22.9946C62.219 20.3133 58.9736 16.4376 57.2539 14.3818C55.5344 12.326 54.0391 10.632 53.9312 10.6171C53.8233 10.6021 53.5889 10.59 53.4101 10.59C53.2313 10.59 52.9534 10.6021 52.7924 10.6171C52.6312 10.632 51.7781 11.5156 50.8965 12.5808C50.0146 13.646 49.1958 14.5205 49.0766 14.5242C48.9575 14.5278 48.5187 14.0739 48.1016 13.5155C47.6845 12.957 47.197 12.3433 47.0182 12.152C46.7086 11.8203 45.8029 10.7651 43.7716 8.36911C41.8616 6.11613 41.8363 6.09403 41.1509 6.09403C40.4149 6.09403 40.4935 6.02816 38.6587 8.1754L37.3431 9.71508L33.893 5.5933C28.5552 -0.782982 28.7305 -0.657093 27.3217 0.874358ZM26.9739 5.60283C26.1408 6.62228 25.3595 7.56416 25.2377 7.6959C25.116 7.82786 23.4842 9.7569 21.6115 11.9828C19.7388 14.2087 17.9987 16.0959 17.7443 16.1767C17.4401 16.2731 17.0867 16.178 16.7121 15.8985C16.1496 15.4793 16.1409 15.4312 16.0339 12.1544L15.9255 8.83517L13.9755 8.85727L12.0254 8.87937L11.9171 16.2079C11.8575 20.2385 11.7169 23.6825 11.6046 23.8613C11.4926 24.04 9.4693 26.4919 7.10864 29.31L2.81676 34.4337V54.6108V74.7879L7.71337 74.7296L12.6102 74.6713L12.6427 56.8937L12.6754 39.1162L13.7588 37.8326C14.3546 37.1267 15.0493 36.3025 15.3026 36.0013C15.5559 35.6999 16.1897 34.9647 16.711 34.3674C17.2323 33.7702 18.2925 32.5027 19.0667 31.5506C20.4963 29.7927 20.9992 29.1908 21.7757 28.3072C22.2851 27.7278 23.2851 26.5431 25.1743 24.2812C29.847 18.6862 34.3805 13.2928 34.7131 12.9325C34.9265 12.7015 35.1012 12.4231 35.1012 12.3134C35.1012 12.204 35.2613 12.1758 35.4567 12.251C35.7683 12.3706 35.775 12.3403 35.5109 12.0071C34.5772 10.829 28.755 3.91429 28.6334 3.8391C28.5539 3.78992 27.8071 4.5836 26.9739 5.60283ZM40.5278 9.93999C40.2519 10.2676 39.7913 10.7894 39.5044 11.099L38.9829 11.6621L42.0323 15.3241C43.7094 17.3383 45.1648 19.0149 45.2664 19.05C45.5128 19.1352 47.4754 16.6486 47.2782 16.5011C47.1935 16.4378 46.8635 16.0448 46.545 15.6277C46.2265 15.2106 45.7143 14.585 45.4068 14.2377C45.0994 13.8904 44.0463 12.6471 43.0667 11.4751C42.0869 10.3031 41.2278 9.34414 41.1574 9.34414C41.087 9.34414 40.8038 9.61238 40.5278 9.93999ZM33.961 17.7554C32.2019 19.8624 30.4955 21.8885 30.1692 22.2581C29.8429 22.6278 29.2347 23.3554 28.8176 23.8754C28.0788 24.7967 26.6589 26.4607 26.4268 26.678C26.3631 26.7376 26.1094 27.0492 25.8633 27.3701C25.6171 27.6912 24.9738 28.4712 24.4339 29.1035C23.4214 30.2894 19.7854 34.6324 17.8756 36.9376C17.2797 37.6567 16.4759 38.5921 16.0891 39.0161L15.386 39.7868L15.3849 57.2832L15.3838 74.7796H20.0423H24.7008V59.3011V43.8226L32.64 34.3294C37.0064 29.1083 41.1594 24.1538 41.8688 23.3196C42.5781 22.4854 43.2056 21.6889 43.2631 21.5498C43.3205 21.4105 42.7621 20.5817 42.0222 19.7081C41.2822 18.8342 39.9471 17.2419 39.055 16.1694C38.163 15.0968 37.3717 14.153 37.2963 14.072C37.2211 13.9909 35.7202 15.6485 33.961 17.7554ZM52.0295 15.5635C51.3892 16.3414 50.9556 17.0395 51.0659 17.1151C51.2715 17.2562 55.2267 21.9043 56.5066 23.509C56.8988 24.0006 57.3846 24.598 57.5861 24.8363C57.7878 25.0747 59.2248 26.781 60.7796 28.6281C62.3345 30.4753 63.815 32.2303 64.0696 32.5282C64.8048 33.3882 67.8484 37.0478 68.7374 38.1407L69.5478 39.1368L69.5499 60.7346C69.5521 80.0819 69.5168 82.3678 69.2119 82.6729C68.9075 82.9771 66.7052 83.0161 48.4654 83.0388C37.2419 83.0531 27.9375 83.0488 27.7884 83.0295C27.6029 83.0052 27.5176 83.3385 27.5176 84.0871V85.18H53.3018H79.086L79.0803 64.9752L79.0745 44.7703L68.5175 32.1811C62.711 25.2569 56.946 18.3829 55.7062 16.9056C54.4666 15.4281 53.3941 14.2035 53.3228 14.1844C53.2517 14.1651 52.6695 14.7857 52.0295 15.5635ZM48.4231 19.8957C47.9653 20.468 47.5014 21.0547 47.3922 21.1999C47.2028 21.4514 48.375 22.9263 55.3257 31.1814L57.2019 33.4095V54.9711V76.5328L56.67 77.0645L56.1382 77.5964H41.8278H27.5176V79.1142V80.6322L47.2392 80.5768L66.9611 80.5215L66.9544 60.1656C66.9509 48.9699 66.8721 39.7558 66.7795 39.69C66.6177 39.5749 64.4362 36.9919 60.384 32.1172C59.3337 30.8536 58.3056 29.6248 58.0996 29.3865C57.8935 29.1481 57.2903 28.4169 56.7592 27.7614C56.2282 27.106 55.7415 26.521 55.6778 26.4614C55.6141 26.4018 54.2575 24.793 52.663 22.8863C51.0687 20.9795 49.6497 19.2925 49.5098 19.1374C49.3065 18.912 49.0888 19.0639 48.4231 19.8957ZM44.3592 24.7685C41.9173 27.6225 36.8681 33.6127 33.9833 37.0784C32.2474 39.1639 30.0832 41.7477 29.174 42.8202L27.521 44.7703L27.5193 59.775L27.5176 74.7796H40.9514H54.3851V54.601V34.4222L50.0192 29.196C47.6178 26.3214 45.5836 23.8903 45.4987 23.7935C45.4138 23.6966 44.9011 24.1354 44.3592 24.7685ZM32.8902 48.1197L32.8261 51.794L36.474 51.8573C38.4804 51.8922 40.1622 51.88 40.2116 51.8302C40.261 51.7806 40.3013 50.0988 40.3013 48.0926V44.4453H36.6278H32.9541L32.8902 48.1197ZM42.0345 48.1829L42.0341 51.9206L45.718 51.8564L49.4016 51.7925V48.1188V44.4453H45.7182H42.0347L42.0345 48.1829ZM32.9344 57.2291V60.9125H36.6179H40.3013V57.2291V53.5456H36.6179H32.9344V57.2291ZM42.0347 57.2291V60.9125H45.7182H49.4016V57.2291V53.5456H45.7182H42.0347V57.2291ZM15.3074 79.0587L15.3394 80.5215L20.02 80.58L24.7008 80.6383V79.1175V77.5964L19.9882 77.5962H15.2755L15.3074 79.0587Z" fill="#FF9D00"/>
</svg>
