<svg width="43" height="43" viewBox="0 0 43 43" fill="none" xmlns="http://www.w3.org/2000/svg">
<path d="M34.8639 17.4159C39.2332 17.4159 42.7875 13.8616 42.7875 9.49228C42.7875 8.17922 42.4253 6.95672 41.8593 5.87005L35.7468 11.9826L32.3736 8.60936L38.4861 2.49686C37.3995 1.93089 36.177 1.56866 34.8639 1.56866C30.4946 1.56866 26.9403 5.12297 26.9403 9.49228C26.9403 10.4205 27.1214 11.3034 27.4157 12.1184L23.2275 16.3066L19.1978 12.2769L20.8052 10.6695L17.6131 7.47742L22.4125 2.67797C19.7638 0.0292184 15.4624 0.0292184 12.8136 2.67797L4.79945 10.6921L7.99153 13.8842H1.60736L0 15.4916L8.01417 23.5058L9.62153 21.8984V15.4916L12.8136 18.6837L14.421 17.0763L18.4507 21.106L1.67528 37.8815L6.47473 42.6809L32.2378 16.9405C33.0528 17.2348 33.9357 17.4159 34.8639 17.4159Z" fill="#FF9D00"/>
</svg>
