<svg width="35" height="34" viewBox="0 0 35 34" fill="none" xmlns="http://www.w3.org/2000/svg">
<path fill-rule="evenodd" clip-rule="evenodd" d="M15.3691 0.0790941C8.77621 0.895316 3.22217 5.45429 1.17294 11.7317C0.593183 13.5078 0.382592 14.9139 0.382592 17.0106C0.382592 18.2901 0.459547 19.3363 0.609854 20.1024C1.9869 27.1214 7.26327 32.3902 14.3021 33.7747C15.8388 34.0769 18.91 34.0747 20.4614 33.7704C27.4322 32.4028 32.8004 27.0603 34.103 20.1938C34.2155 19.6004 34.3076 18.8851 34.3076 18.6043C34.3076 18.3233 34.3676 18.0563 34.4409 18.0109C34.5143 17.9656 34.5743 17.4484 34.5743 16.8615C34.5743 16.1841 34.5256 15.8247 34.4409 15.877C34.3606 15.9266 34.3076 15.7499 34.3076 15.4327C34.3076 15.1432 34.2155 14.4209 34.103 13.8275C32.8056 6.98858 27.3861 1.57363 20.5386 0.274614C19.1556 0.0122759 16.6684 -0.0817496 15.3691 0.0790941ZM19.4882 10.2595C17.9914 10.7943 16.9152 12.4687 17.1478 13.9014L17.2242 14.3725L16.4682 14.278C15.4112 14.146 14.1243 13.7313 13.082 13.1871C12.1549 12.7029 10.3935 11.309 10.2559 10.9505C10.2119 10.836 10.1164 10.7423 10.0436 10.7423C9.88638 10.7423 9.50081 11.9739 9.50081 12.4761C9.50081 13.1504 9.89838 14.1589 10.3915 14.735L10.8879 15.315L10.4944 15.2416C10.2781 15.2013 9.9568 15.1233 9.78048 15.0684C9.46827 14.9709 9.4624 14.9829 9.55069 15.5349C9.60044 15.8466 9.75714 16.3287 9.89892 16.6065C10.2174 17.2308 11.2105 18.1223 11.7968 18.3101C12.215 18.4441 12.2001 18.451 11.4653 18.4641L10.6957 18.4777L10.96 18.9957C11.4793 20.0139 12.6539 20.8685 13.5431 20.8754C14.0602 20.8794 13.8937 21.0781 12.992 21.5332C11.8853 22.0918 10.9095 22.3449 9.8433 22.3498L8.90064 22.3544L9.20606 22.609C9.64938 22.9785 11.4363 23.6367 12.4988 23.8218C13.7742 24.0439 15.9943 23.9121 17.1696 23.5447C18.8075 23.0324 19.8678 22.3865 21.104 21.1475C22.2774 19.9717 22.9043 19.05 23.4499 17.6992C23.8518 16.7043 24.1715 15.1969 24.1715 14.2966C24.1715 13.628 24.2007 13.572 24.9149 12.8716C25.3236 12.4707 25.7147 12.04 25.7836 11.9144C25.899 11.7045 25.8691 11.7003 25.407 11.8608C25.1309 11.9567 24.725 12.0789 24.5049 12.132L24.1048 12.2288L24.5181 11.7856C25.491 10.7424 25.6535 10.193 24.8709 10.5922C24.5955 10.7328 24.1085 10.9182 23.789 11.0042C23.2666 11.1449 23.1792 11.1337 22.9229 10.8931C22.141 10.1592 20.5765 9.87056 19.4882 10.2595ZM0.344849 17.0106C0.344849 17.6341 0.367922 17.8893 0.395929 17.5775C0.42407 17.2656 0.42407 16.7555 0.395929 16.4438C0.367922 16.132 0.344849 16.3871 0.344849 17.0106Z" fill=" white
"/>
</svg>
